<svg width="30" height="26" viewBox="0 0 30 26" fill="none" xmlns="http://www.w3.org/2000/svg">
<path d="M29.3423 5.29243C28.7739 4.63092 27.8893 4.22823 26.9734 4.22823H7.73824L7.13807 2.09968C6.79063 0.862955 5.59036 0 4.20079 0H0.979075C0.44216 0 0 0.402678 0 0.891616C0 1.38057 0.442177 1.78323 0.979075 1.78323H4.20079C4.67447 1.78323 5.08517 2.07095 5.21162 2.50232L9.06498 16.4814C9.41242 17.7181 10.6127 18.581 12.0023 18.581H24.6046C25.9944 18.581 27.2262 17.7181 27.5419 16.4814L29.9108 7.62222C30.1318 6.81684 29.9423 5.95409 29.3421 5.29243H29.3423ZM27.9843 7.21958L25.6154 16.0787C25.4892 16.5101 25.0785 16.7978 24.6046 16.7978H12.0022C11.5285 16.7978 11.1178 16.5101 10.9914 16.0787L8.24354 6.04028H26.9734C27.2893 6.04028 27.605 6.18414 27.7945 6.41426C27.9842 6.6444 28.079 6.93211 27.9842 7.21964L27.9843 7.21958Z" fill="black"/>
<path d="M12.6655 19.7317C10.865 19.7317 9.38074 21.0836 9.38074 22.723C9.38074 24.3626 10.8652 25.7143 12.6655 25.7143C14.4659 25.7145 15.9504 24.3626 15.9504 22.723C15.9504 21.0836 14.4659 19.7317 12.6655 19.7317V19.7317ZM12.6655 23.9023C11.9391 23.9023 11.3704 23.3847 11.3704 22.723C11.3704 22.0615 11.9388 21.5436 12.6655 21.5436C13.3918 21.5436 13.9605 22.0613 13.9605 22.723C13.9605 23.3558 13.3603 23.9023 12.6655 23.9023Z" fill="black"/>
<path d="M23.5307 19.7317C21.7302 19.7317 20.246 21.0836 20.246 22.723C20.246 24.3626 21.7305 25.7143 23.5307 25.7143C25.3311 25.7143 26.8154 24.3624 26.8154 22.723C26.7839 21.0836 25.3311 19.7317 23.5307 19.7317V19.7317ZM23.5307 23.9023C22.8043 23.9023 22.2357 23.3847 22.2357 22.723C22.2357 22.0615 22.8041 21.5436 23.5307 21.5436C24.2571 21.5436 24.8257 22.0613 24.8257 22.723C24.8257 23.3558 24.2256 23.9023 23.5307 23.9023V23.9023Z" fill="black"/>
</svg>
