<svg width="30" height="30" viewBox="0 0 30 30" fill="none" xmlns="http://www.w3.org/2000/svg">
<path d="M15 0C11.0218 0 7.20644 1.58035 4.3934 4.3934C1.58035 7.20644 0 11.0218 0 15C0 18.9782 1.58035 22.7936 4.3934 25.6066C7.20644 28.4196 11.0218 30 15 30C18.9782 30 22.7936 28.4196 25.6066 25.6066C28.4196 22.7936 30 18.9782 30 15C30 11.0218 28.4196 7.20644 25.6066 4.3934C22.7936 1.58035 18.9782 0 15 0Z" fill="#039BE5"/>
<path d="M17.0309 18.9758H20.9128L21.5223 15.0324H17.0301V12.8771C17.0301 11.239 17.5654 9.78632 19.0978 9.78632H21.5601V6.34501C21.1275 6.28659 20.2125 6.15869 18.4836 6.15869C14.8733 6.15869 12.7567 8.06527 12.7567 12.409V15.0324H9.04541V18.9758H12.7567V29.8145C13.4917 29.925 14.2362 30 15.0004 30C15.6912 30 16.3654 29.9369 17.0309 29.8469V18.9758Z" fill="white"/>
</svg>
