<svg width="30" height="30" viewBox="0 0 30 30" fill="none" xmlns="http://www.w3.org/2000/svg">
<path d="M23.3435 29.9842L6.68564 30C3.02091 30.0033 0.0199923 27.0082 0.0158278 23.3435L2.77671e-06 6.68564C-0.0033288 3.02091 2.99176 0.0199923 6.65649 0.0158278L23.3144 2.77671e-06C26.9791 -0.0033288 29.98 2.99176 29.9842 6.65649L30 23.3144C30.0042 26.9799 27.0082 29.9808 23.3435 29.9842Z" fill="url(#paint0_radial_589_2205)"/>
<path d="M23.3435 29.9842L6.68564 30C3.02091 30.0033 0.0199923 27.0082 0.0158278 23.3435L2.77671e-06 6.68564C-0.0033288 3.02091 2.99176 0.0199923 6.65649 0.0158278L23.3144 2.77671e-06C26.9791 -0.0033288 29.98 2.99176 29.9842 6.65649L30 23.3144C30.0042 26.9799 27.0082 29.9808 23.3435 29.9842Z" fill="url(#paint1_radial_589_2205)"/>
<path d="M15.0002 20.8304C11.786 20.8304 9.16992 18.2151 9.16992 15.0002C9.16992 11.7852 11.786 9.16992 15.0002 9.16992C18.2143 9.16992 20.8304 11.7852 20.8304 15.0002C20.8304 18.2151 18.2143 20.8304 15.0002 20.8304ZM15.0002 10.8357C12.7039 10.8357 10.8357 12.7039 10.8357 15.0002C10.8357 17.2965 12.7039 19.1646 15.0002 19.1646C17.2965 19.1646 19.1646 17.2965 19.1646 15.0002C19.1646 12.7039 17.2965 10.8357 15.0002 10.8357Z" fill="white"/>
<path d="M21.2474 10.0031C21.9374 10.0031 22.4967 9.44373 22.4967 8.75373C22.4967 8.06374 21.9374 7.50439 21.2474 7.50439C20.5574 7.50439 19.998 8.06374 19.998 8.75373C19.998 9.44373 20.5574 10.0031 21.2474 10.0031Z" fill="white"/>
<path d="M19.9978 25.8281H10.0031C6.78897 25.8281 4.17285 23.2128 4.17285 19.9978V10.0031C4.17285 6.78814 6.78897 4.17285 10.0031 4.17285H19.9978C23.212 4.17285 25.8281 6.78814 25.8281 10.0031V19.9978C25.8281 23.2128 23.212 25.8281 19.9978 25.8281ZM10.0031 5.83864C7.70682 5.83864 5.83864 7.70682 5.83864 10.0031V19.9978C5.83864 22.2941 7.70682 24.1623 10.0031 24.1623H19.9978C22.2941 24.1623 24.1623 22.2941 24.1623 19.9978V10.0031C24.1623 7.70682 22.2941 5.83864 19.9978 5.83864H10.0031Z" fill="white"/>
<defs>
<radialGradient id="paint0_radial_589_2205" cx="0" cy="0" r="1" gradientUnits="userSpaceOnUse" gradientTransform="translate(11.1524 30.0216) scale(37.3961)">
<stop stop-color="#FFDD55"/>
<stop offset="0.328" stop-color="#FF543F"/>
<stop offset="0.348" stop-color="#FC5245"/>
<stop offset="0.504" stop-color="#E64771"/>
<stop offset="0.643" stop-color="#D53E91"/>
<stop offset="0.761" stop-color="#CC39A4"/>
<stop offset="0.841" stop-color="#C837AB"/>
</radialGradient>
<radialGradient id="paint1_radial_589_2205" cx="0" cy="0" r="1" gradientUnits="userSpaceOnUse" gradientTransform="translate(4.82745 -0.374547) scale(24.8311 16.5449)">
<stop stop-color="#4168C9"/>
<stop offset="0.999" stop-color="#4168C9" stop-opacity="0"/>
</radialGradient>
</defs>
</svg>
