<svg width="200" height="110" viewBox="0 0 200 110" fill="none" xmlns="http://www.w3.org/2000/svg">
<g clip-path="url(#clip0_589_2227)">
<path fill-rule="evenodd" clip-rule="evenodd" d="M82.7022 19.4263C35.718 23.1494 0 41.7746 0 64.1906C-5.61798e-06 89.2878 44.7715 109.633 100 109.633C155.229 109.633 200 89.2878 200 64.1906C200 55.7025 194.879 47.758 185.963 40.9602C192.97 46.8873 196.94 53.6521 196.94 60.834C196.94 84.2361 154.785 103.208 102.783 103.208C50.7813 103.208 8.6256 84.2361 8.6256 60.834C8.6256 40.5331 40.3483 23.5667 82.7022 19.4263Z" fill="#FFCC1D"/>
<path d="M29.8673 61.5133C28.0957 61.5133 26.5302 61.1423 25.1706 60.4004C23.8317 59.6585 22.7914 58.6176 22.0499 57.2782C21.3083 55.9181 20.9375 54.3724 20.9375 52.6413C20.9375 50.2301 21.4937 48.0145 22.606 45.9949C23.7184 43.9753 25.2427 42.3781 27.1791 41.2034C29.1154 40.0287 31.268 39.4414 33.6369 39.4414C35.4085 39.4414 36.9637 39.8123 38.3027 40.5542C39.6622 41.2961 40.7024 42.3472 41.4235 43.7073C42.165 45.0469 42.5358 46.5925 42.5358 48.3443C42.5358 50.7556 41.9796 52.9707 40.8673 54.9907C39.7755 56.9893 38.2614 58.5766 36.3251 59.7513C34.3888 60.9259 32.2362 61.5133 29.8673 61.5133ZM30.1763 59.5658C32.1126 59.5658 33.8532 59.0605 35.3982 58.0511C36.9431 57.041 38.1482 55.691 39.0133 54.0015C39.8785 52.2906 40.3111 50.4465 40.3111 48.4679C40.3111 46.2834 39.6725 44.5626 38.3954 43.3055C37.1388 42.0483 35.4394 41.4198 33.2971 41.4198C31.3607 41.4198 29.6201 41.9247 28.0751 42.9345C26.5508 43.9444 25.356 45.3045 24.4909 47.015C23.6257 48.7049 23.1931 50.5286 23.1931 52.4867C23.1931 54.6709 23.8214 56.402 25.0779 57.6801C26.3551 58.9368 28.0545 59.5658 30.1763 59.5658ZM48.1003 47.7878C48.78 46.6131 49.6658 45.7064 50.7576 45.0675C51.8496 44.4286 53.1164 44.1092 54.558 44.1092L54.1563 46.3658H53.5383C52.0552 46.3658 50.7782 46.7471 49.707 47.5096C48.6358 48.2722 47.8942 49.5292 47.4823 51.2811L45.721 61.2969H43.5581L46.5244 44.4183H48.6873L48.1003 47.7878ZM63.9299 44.171C65.5159 44.171 66.8243 44.542 67.8541 45.2839C68.9046 46.0258 69.5844 46.9635 69.8934 48.097L70.5423 44.4183H72.7052L69.6771 61.7297C69.4091 63.2753 68.8327 64.6456 67.9468 65.8411C67.0816 67.036 65.99 67.9533 64.6715 68.5923C63.3529 69.2516 61.9316 69.5815 60.4074 69.5815C58.2445 69.5815 56.535 69.0661 55.2782 68.0359C54.0423 67.0051 53.4035 65.6039 53.3625 63.8318H55.4945C55.6591 65.0064 56.1951 65.9439 57.1013 66.6448C58.0074 67.3451 59.2232 67.6959 60.7473 67.6959C62.4159 67.6959 63.8782 67.1597 65.135 66.0884C66.3917 65.0374 67.1844 63.5844 67.5142 61.7297L68.2249 57.5564C67.5243 58.7103 66.5153 59.6686 65.1968 60.4313C63.899 61.1732 62.4569 61.5442 60.8709 61.5442C58.8316 61.5442 57.194 60.9361 55.958 59.7203C54.7428 58.4838 54.135 56.8247 54.135 54.7434C54.135 54.1454 54.1968 53.5069 54.3204 52.8268C54.6294 51.0957 55.2473 49.5809 56.1743 48.2824C57.1013 46.9635 58.2344 45.9537 59.5732 45.253C60.9327 44.5317 62.385 44.171 63.9299 44.171ZM69.0591 52.8577C69.1619 52.2805 69.2136 51.7651 69.2136 51.3121C69.2136 49.7046 68.7294 48.4267 67.7614 47.4787C66.7934 46.5307 65.5367 46.0567 63.9917 46.0567C62.7968 46.0567 61.6743 46.3246 60.6237 46.8604C59.594 47.3963 58.7181 48.1794 57.9973 49.21C57.2765 50.2194 56.7923 51.425 56.5451 52.8268C56.4423 53.445 56.3906 53.9706 56.3906 54.4033C56.3906 56.031 56.8642 57.3193 57.8119 58.2674C58.7799 59.1948 60.0367 59.6585 61.5816 59.6585C62.735 59.6585 63.8372 59.3803 64.8878 58.8239C65.9591 58.2674 66.8552 57.4738 67.576 56.4436C68.3176 55.4128 68.8119 54.2179 69.0591 52.8577ZM74.244 52.8268C74.553 51.0957 75.1709 49.5809 76.0979 48.2824C77.0249 46.9635 78.158 45.9537 79.4968 45.253C80.8563 44.5317 82.3086 44.171 83.8535 44.171C85.4603 44.171 86.7788 44.542 87.8086 45.2839C88.8389 46.0258 89.508 46.9738 89.817 48.1279L90.4659 44.4183H92.6288L89.6625 61.2969H87.4996L88.1485 57.5564C87.4485 58.7103 86.4389 59.6686 85.1204 60.4313C83.8226 61.1732 82.3704 61.5442 80.7636 61.5442C79.4249 61.5442 78.2507 61.266 77.2411 60.7096C76.2322 60.1531 75.449 59.3696 74.8928 58.3602C74.3367 57.3294 74.0586 56.1238 74.0586 54.7434C74.0586 54.1454 74.1204 53.5069 74.244 52.8268ZM88.9827 52.8577C89.0861 52.2805 89.1372 51.7651 89.1372 51.3121C89.1372 49.7046 88.6535 48.4267 87.685 47.4787C86.717 46.5307 85.4603 46.0567 83.9153 46.0567C82.7209 46.0567 81.5979 46.3246 80.5473 46.8604C79.5176 47.3963 78.6423 48.1794 77.9209 49.21C77.2001 50.2194 76.7159 51.425 76.4687 52.8268C76.3659 53.445 76.3142 53.9706 76.3142 54.4033C76.3142 56.031 76.7883 57.3193 77.7355 58.2674C78.7041 59.1948 79.9602 59.6585 81.5052 59.6585C82.6591 59.6585 83.7608 59.3803 84.8114 58.8239C85.8827 58.2674 86.7788 57.4738 87.4996 56.4436C88.2411 55.4128 88.7355 54.2179 88.9827 52.8577ZM104.642 44.1092C106.373 44.1092 107.753 44.5832 108.783 45.5312C109.833 46.4586 110.359 47.8187 110.359 49.6119C110.359 50.2711 110.307 50.8686 110.204 51.4048L108.443 61.2969H106.311L108.01 51.6521C108.093 51.1777 108.134 50.673 108.134 50.1374C108.134 48.777 107.763 47.7466 107.021 47.0459C106.28 46.3452 105.24 45.9949 103.901 45.9949C102.274 45.9949 100.883 46.5101 99.7294 47.5405C98.576 48.5709 97.8243 50.0857 97.4737 52.0849V51.9921L95.8361 61.2969H93.6732L96.6395 44.4183H98.8024L98.2771 47.3241C98.9984 46.2937 99.9147 45.5003 101.027 44.9439C102.139 44.3874 103.345 44.1092 104.642 44.1092ZM116.934 41.2343C116.543 41.2343 116.224 41.1209 115.977 40.8943C115.729 40.647 115.606 40.3276 115.606 39.936C115.606 39.4002 115.791 38.957 116.162 38.6067C116.533 38.2358 116.975 38.0503 117.491 38.0503C117.882 38.0503 118.191 38.1637 118.418 38.3903C118.665 38.617 118.788 38.9159 118.788 39.2868C118.788 39.8226 118.603 40.2863 118.232 40.6779C117.861 41.0488 117.429 41.2343 116.934 41.2343ZM117.429 44.4183L114.462 61.2969H112.3L115.266 44.4183H117.429Z" fill="white" stroke="white"/>
<path d="M119.025 52.6719C119.334 50.879 119.972 49.3126 120.94 47.973C121.908 46.6335 123.103 45.603 124.525 44.8818C125.966 44.1605 127.532 43.7998 129.221 43.7998C131.384 43.7998 133.094 44.3665 134.351 45.5C135.607 46.6335 136.276 48.2306 136.359 50.2917H130.735C130.508 48.9725 129.705 48.3131 128.325 48.3131C127.357 48.3131 126.523 48.6943 125.823 49.457C125.122 50.1989 124.648 51.2702 124.401 52.6719C124.319 53.1047 124.278 53.5577 124.278 54.0321C124.278 55.0005 124.504 55.7424 124.957 56.2578C125.41 56.7727 126.028 57.0307 126.811 57.0307C128.171 57.0307 129.19 56.3708 129.87 55.0522H135.525C134.721 57.0717 133.485 58.6584 131.817 59.8128C130.148 60.9667 128.243 61.5439 126.101 61.5439C123.876 61.5439 122.104 60.9358 120.786 59.7201C119.488 58.4836 118.839 56.8036 118.839 54.6813C118.839 54.0422 118.901 53.3723 119.025 52.6719ZM144.19 61.5439C142.707 61.5439 141.389 61.2449 140.235 60.6475C139.082 60.0494 138.186 59.2047 137.547 58.1126C136.929 57.02 136.62 55.7526 136.62 54.3103C136.62 52.3521 137.084 50.5699 138.011 48.9624C138.938 47.3548 140.215 46.0976 141.842 45.1909C143.47 44.2635 145.283 43.7998 147.28 43.7998C148.764 43.7998 150.082 44.1089 151.235 44.7272C152.41 45.3248 153.316 46.1698 153.955 47.262C154.593 48.3543 154.912 49.6217 154.912 51.0645C154.912 53.0429 154.439 54.8358 153.491 56.4433C152.564 58.03 151.277 59.2766 149.629 60.1838C148.002 61.0904 146.189 61.5439 144.19 61.5439ZM144.932 56.9997C145.797 56.9997 146.57 56.7418 147.249 56.2269C147.95 55.6907 148.485 55.0106 148.856 54.1867C149.248 53.3414 149.443 52.4657 149.443 51.5591C149.443 50.5283 149.165 49.7352 148.609 49.1788C148.053 48.6222 147.353 48.344 146.508 48.344C145.623 48.344 144.839 48.6119 144.16 49.1479C143.501 49.6627 142.985 50.3428 142.615 51.1881C142.244 52.0329 142.058 52.9193 142.058 53.8466C142.058 54.8561 142.326 55.6396 142.862 56.196C143.398 56.7316 144.088 56.9997 144.932 56.9997ZM180.148 43.8616C182.002 43.8616 183.444 44.3562 184.474 45.3454C185.525 46.314 186.05 47.6742 186.05 49.4261C186.05 49.9617 185.988 50.5592 185.865 51.219L184.072 61.2966H178.82L180.488 51.93C180.529 51.7238 180.55 51.4456 180.55 51.0954C180.55 50.2298 180.303 49.57 179.808 49.117C179.334 48.6634 178.665 48.4367 177.8 48.4367C176.77 48.4367 175.905 48.7459 175.205 49.3643C174.504 49.9617 174.061 50.8172 173.876 51.93L172.207 61.2966H166.955L168.623 51.93C168.664 51.7238 168.685 51.4456 168.685 51.0954C168.685 50.2298 168.438 49.57 167.943 49.117C167.469 48.6634 166.8 48.4367 165.935 48.4367C164.905 48.4367 164.039 48.7459 163.339 49.3643C162.639 49.9617 162.196 50.8172 162.011 51.93V51.7755L160.342 61.2966H155.058L158.087 44.0471H163.37L162.999 46.2419C163.658 45.5 164.452 44.923 165.379 44.5108C166.326 44.078 167.346 43.8616 168.438 43.8616C169.756 43.8616 170.868 44.1398 171.775 44.6963C172.702 45.2527 173.361 46.0564 173.752 47.1075C174.514 46.1389 175.462 45.3557 176.595 44.7581C177.728 44.1605 178.912 43.8616 180.148 43.8616Z" fill="#FFCC1D"/>
<path d="M101.869 67.3667C102.64 67.3667 103.254 67.5837 103.711 68.0187C104.176 68.4531 104.408 69.0377 104.408 69.7723C104.408 69.9443 104.389 70.1505 104.352 70.3905C104.322 70.5552 104.27 70.7576 104.194 70.9976H99.464C99.4567 71.0498 99.4528 71.1285 99.4528 71.2336C99.4528 71.6754 99.5876 72.0278 99.8573 72.2903C100.135 72.5522 100.494 72.6837 100.936 72.6837C101.633 72.6837 102.169 72.3948 102.543 71.8182H103.925C103.64 72.3875 103.221 72.8557 102.666 73.2233C102.112 73.583 101.472 73.7628 100.745 73.7628C100.228 73.7628 99.7753 73.6617 99.3854 73.4593C98.9961 73.257 98.6927 72.9681 98.4753 72.5938C98.2584 72.2116 98.1494 71.7653 98.1494 71.2561C98.1494 71.0386 98.1719 70.8065 98.2168 70.5592C98.3292 69.9218 98.5578 69.3637 98.9022 68.8842C99.2472 68.3969 99.6741 68.0221 100.183 67.7601C100.7 67.4977 101.262 67.3667 101.869 67.3667ZM103.071 70.0758C103.086 69.9409 103.093 69.8431 103.093 69.7835C103.093 69.371 102.955 69.045 102.678 68.8056C102.408 68.5656 102.056 68.4458 101.621 68.4458C101.165 68.4458 100.753 68.592 100.385 68.8842C100.019 69.1765 99.7674 69.5733 99.6326 70.0758H103.071ZM111.725 69.0529L111.534 70.132H106.916L107.107 69.0529H111.725ZM113.971 70.5592C114.084 69.9218 114.308 69.3637 114.645 68.8842C114.99 68.3969 115.413 68.0221 115.915 67.7601C116.425 67.4977 116.975 67.3667 117.567 67.3667C118.316 67.3667 118.904 67.5466 119.331 67.9063C119.758 68.2581 120.002 68.764 120.061 69.4238H118.679C118.62 69.1164 118.481 68.8764 118.263 68.7044C118.047 68.5318 117.751 68.4458 117.376 68.4458C116.852 68.4458 116.402 68.633 116.028 69.0079C115.653 69.3749 115.406 69.892 115.286 70.5592C115.249 70.7986 115.23 70.9936 115.23 71.1437C115.23 71.6383 115.353 72.0205 115.601 72.2903C115.848 72.5522 116.193 72.6837 116.634 72.6837C117.376 72.6837 117.923 72.3577 118.275 71.7057H119.657C119.365 72.3352 118.938 72.8372 118.376 73.212C117.822 73.5791 117.178 73.7628 116.443 73.7628C115.665 73.7628 115.047 73.5414 114.589 73.0996C114.133 72.65 113.904 72.043 113.904 71.2786C113.904 71.0459 113.926 70.8065 113.971 70.5592ZM124.417 73.7628C123.892 73.7628 123.431 73.6538 123.035 73.4369C122.638 73.2193 122.327 72.9119 122.102 72.5151C121.885 72.1177 121.776 71.6641 121.776 71.1549C121.776 70.458 121.937 69.8206 122.26 69.244C122.589 68.6667 123.038 68.2098 123.608 67.8726C124.184 67.5353 124.825 67.3667 125.529 67.3667C126.053 67.3667 126.518 67.4791 126.922 67.7039C127.327 67.9209 127.642 68.2283 127.866 68.6257C128.098 69.0152 128.215 69.4688 128.215 69.9859C128.215 70.6828 128.046 71.3196 127.709 71.8968C127.372 72.4735 126.915 72.931 126.338 73.2682C125.761 73.5976 125.121 73.7628 124.417 73.7628ZM124.574 72.6837C125.001 72.6837 125.39 72.5634 125.743 72.324C126.102 72.0767 126.383 71.7541 126.585 71.3573C126.788 70.9526 126.889 70.5215 126.889 70.0645C126.889 69.5475 126.743 69.1501 126.451 68.873C126.158 68.588 125.791 68.4458 125.349 68.4458C124.915 68.4458 124.525 68.5695 124.181 68.8168C123.844 69.0562 123.578 69.3822 123.383 69.7948C123.195 70.1994 123.102 70.6339 123.102 71.0987C123.102 71.6006 123.237 71.9901 123.507 72.2678C123.784 72.5449 124.139 72.6837 124.574 72.6837ZM138.604 67.3667C139.256 67.3667 139.776 67.5426 140.166 67.895C140.556 68.2469 140.751 68.7454 140.751 69.3901C140.751 69.5621 140.731 69.7684 140.694 70.0083L140.043 73.6617H138.773L139.391 70.1994C139.421 69.9892 139.436 69.8397 139.436 69.7498C139.436 69.3373 139.32 69.0225 139.088 68.8056C138.863 68.588 138.548 68.4796 138.144 68.4796C137.657 68.4796 137.245 68.6291 136.908 68.9292C136.578 69.2215 136.369 69.6447 136.279 70.1994L135.661 73.6617H134.391L135.009 70.1994C135.039 69.9892 135.054 69.8397 135.054 69.7498C135.054 69.3373 134.938 69.0225 134.706 68.8056C134.481 68.588 134.166 68.4796 133.762 68.4796C133.275 68.4796 132.863 68.6291 132.526 68.9292C132.196 69.2215 131.986 69.6447 131.897 70.1994V70.1657L131.279 73.6617H129.998L131.088 67.4679H132.369L132.245 68.1873C132.492 67.9321 132.788 67.7337 133.133 67.5915C133.484 67.4415 133.848 67.3667 134.222 67.3667C134.717 67.3667 135.14 67.4712 135.492 67.6815C135.852 67.8911 136.102 68.1946 136.245 68.592C136.492 68.2171 136.833 67.9209 137.267 67.7039C137.702 67.4791 138.147 67.3667 138.604 67.3667ZM151.403 67.3667C152.054 67.3667 152.575 67.5426 152.965 67.895C153.354 68.2469 153.549 68.7454 153.549 69.3901C153.549 69.5621 153.53 69.7684 153.493 70.0083L152.841 73.6617H151.571L152.189 70.1994C152.219 69.9892 152.234 69.8397 152.234 69.7498C152.234 69.3373 152.118 69.0225 151.886 68.8056C151.661 68.588 151.347 68.4796 150.942 68.4796C150.455 68.4796 150.043 68.6291 149.706 68.9292C149.376 69.2215 149.167 69.6447 149.077 70.1994L148.459 73.6617H147.189L147.807 70.1994C147.837 69.9892 147.852 69.8397 147.852 69.7498C147.852 69.3373 147.736 69.0225 147.504 68.8056C147.279 68.588 146.965 68.4796 146.56 68.4796C146.073 68.4796 145.661 68.6291 145.324 68.9292C144.994 69.2215 144.785 69.6447 144.695 70.1994V70.1657L144.077 73.6617H142.796L143.886 67.4679H145.167L145.043 68.1873C145.29 67.9321 145.586 67.7337 145.931 67.5915C146.283 67.4415 146.646 67.3667 147.021 67.3667C147.515 67.3667 147.938 67.4712 148.29 67.6815C148.65 67.8911 148.901 68.1946 149.043 68.592C149.29 68.2171 149.631 67.9209 150.066 67.7039C150.5 67.4791 150.945 67.3667 151.403 67.3667ZM159.37 67.3667C160.141 67.3667 160.756 67.5837 161.212 68.0187C161.677 68.4531 161.909 69.0377 161.909 69.7723C161.909 69.9443 161.89 70.1505 161.853 70.3905C161.823 70.5552 161.77 70.7576 161.695 70.9976H156.965C156.958 71.0498 156.954 71.1285 156.954 71.2336C156.954 71.6754 157.089 72.0278 157.358 72.2903C157.635 72.5522 157.995 72.6837 158.437 72.6837C159.134 72.6837 159.669 72.3948 160.044 71.8182H161.426C161.141 72.3875 160.722 72.8557 160.167 73.2233C159.613 73.583 158.972 73.7628 158.246 73.7628C157.729 73.7628 157.276 73.6617 156.886 73.4593C156.497 73.257 156.194 72.9681 155.976 72.5938C155.759 72.2116 155.651 71.7653 155.651 71.2561C155.651 71.0386 155.673 70.8065 155.718 70.5592C155.83 69.9218 156.059 69.3637 156.403 68.8842C156.748 68.3969 157.175 68.0221 157.684 67.7601C158.201 67.4977 158.763 67.3667 159.37 67.3667ZM160.572 70.0758C160.587 69.9409 160.594 69.8431 160.594 69.7835C160.594 69.371 160.456 69.045 160.179 68.8056C159.909 68.5656 159.557 68.4458 159.122 68.4458C158.666 68.4458 158.253 68.592 157.886 68.8842C157.52 69.1765 157.269 69.5733 157.134 70.0758H160.572ZM165.833 68.5583C166.087 68.1834 166.387 67.8911 166.731 67.6815C167.083 67.4712 167.473 67.3667 167.9 67.3667L167.664 68.6931H167.338C166.844 68.6931 166.447 68.8168 166.147 69.0641C165.847 69.3114 165.638 69.7386 165.518 70.3456L164.934 73.6617H163.653L164.743 67.4679H166.024L165.833 68.5583ZM169.212 70.5592C169.325 69.9218 169.549 69.3637 169.886 68.8842C170.231 68.3969 170.654 68.0221 171.156 67.7601C171.665 67.4977 172.216 67.3667 172.808 67.3667C173.557 67.3667 174.145 67.5466 174.572 67.9063C174.999 68.2581 175.242 68.764 175.302 69.4238H173.92C173.86 69.1164 173.721 68.8764 173.504 68.7044C173.287 68.5318 172.991 68.4458 172.617 68.4458C172.092 68.4458 171.643 68.633 171.269 69.0079C170.894 69.3749 170.647 69.892 170.527 70.5592C170.489 70.7986 170.471 70.9936 170.471 71.1437C170.471 71.6383 170.594 72.0205 170.842 72.2903C171.089 72.5522 171.433 72.6837 171.875 72.6837C172.617 72.6837 173.163 72.3577 173.516 71.7057H174.898C174.606 72.3352 174.179 72.8372 173.617 73.212C173.062 73.5791 172.418 73.7628 171.684 73.7628C170.905 73.7628 170.287 73.5414 169.83 73.0996C169.373 72.65 169.145 72.043 169.145 71.2786C169.145 71.0459 169.167 70.8065 169.212 70.5592ZM180.725 67.3667C181.496 67.3667 182.11 67.5837 182.567 68.0187C183.031 68.4531 183.264 69.0377 183.264 69.7723C183.264 69.9443 183.245 70.1505 183.208 70.3905C183.177 70.5552 183.125 70.7576 183.051 70.9976H178.32C178.312 71.0498 178.309 71.1285 178.309 71.2336C178.309 71.6754 178.444 72.0278 178.713 72.2903C178.99 72.5522 179.35 72.6837 179.792 72.6837C180.489 72.6837 181.024 72.3948 181.399 71.8182H182.781C182.496 72.3875 182.076 72.8557 181.522 73.2233C180.968 73.583 180.328 73.7628 179.601 73.7628C179.084 73.7628 178.631 73.6617 178.242 73.4593C177.852 73.257 177.548 72.9681 177.331 72.5938C177.114 72.2116 177.006 71.7653 177.006 71.2561C177.006 71.0386 177.028 70.8065 177.073 70.5592C177.185 69.9218 177.413 69.3637 177.758 68.8842C178.103 68.3969 178.53 68.0221 179.039 67.7601C179.556 67.4977 180.118 67.3667 180.725 67.3667ZM181.927 70.0758C181.942 69.9409 181.949 69.8431 181.949 69.7835C181.949 69.371 181.811 69.045 181.534 68.8056C181.264 68.5656 180.912 68.4458 180.478 68.4458C180.02 68.4458 179.608 68.592 179.242 68.8842C178.874 69.1765 178.624 69.5733 178.489 70.0758H181.927Z" fill="white" stroke="white"/>
<path d="M147.417 29.7703C148.595 33.4423 148.595 37.6577 148.595 37.6577C149.438 35.6905 150.046 32.0883 150.453 30.807C152.503 24.3437 155.658 23.5448 156.461 23.3254C155.816 23.5269 154.308 23.9771 152.528 30.351C165.144 33.9399 172.191 21.6392 172.191 12.0843C169.944 13.7705 169.434 13.6432 164.934 14.1903C158.309 14.9958 150.132 18.9556 149.172 29.5258C147.868 6.35888 133.989 4.21561 126.123 3.09151C121.743 3.09151 114.887 2.84246 111.517 0.28125C109.55 18.2669 125.242 35.1006 145.147 29.4125C142.416 17.1428 131.741 14.3325 131.741 14.3325C131.741 14.3325 143.82 16.0187 147.417 29.7703Z" fill="#FFCC1D"/>
</g>
<defs>
<clipPath id="clip0_589_2227">
<rect width="200" height="109.6" fill="white"/>
</clipPath>
</defs>
</svg>
