<svg width="20" height="20" viewBox="0 0 20 20" fill="none" xmlns="http://www.w3.org/2000/svg">
   <path
      d="M19.6814 17.416L16.103 13.8446C18.4817 10.3992 18.1448 5.65128 15.0927 2.58404C11.6405 -0.861347 6.04127 -0.861347 2.58912 2.58404C-0.863039 6.02943 -0.863039 11.6177 2.58912 15.0631C5.64114 18.1513 10.4196 18.4873 13.8718 16.1135L17.4502 19.6849C17.8711 20.105 18.5237 20.105 18.9448 19.6849L19.7026 18.9286C20.1026 18.5085 20.1026 17.8361 19.6816 17.416H19.6814ZM4.35722 13.3403C1.87343 10.8614 1.87343 6.84872 4.35722 4.36972C6.84101 1.8908 10.8616 1.8908 13.3455 4.36972C15.8292 6.84865 15.8292 10.8613 13.3455 13.3403C10.8615 15.7983 6.82004 15.7983 4.35722 13.3403Z"
      fill="#000000" />
</svg>