<svg width="33" height="19" viewBox="0 0 33 19" fill="none" xmlns="http://www.w3.org/2000/svg">
<path d="M30.0009 4.13723H10.9823C9.79867 4.13723 8.83948 3.25143 8.83948 2.15838C8.83948 1.06533 9.79867 0.179528 10.9823 0.179528L30.0009 0.179321C31.1845 0.179321 32.1437 1.06512 32.1437 2.15817C32.1437 3.25123 31.1845 4.13724 30.0009 4.13724V4.13723Z" fill="black"/>
<path d="M3.30348 4.13715H2.1427C0.959074 4.13715 -0.00012207 3.25135 -0.00012207 2.15829C-0.00012207 1.06524 0.959074 0.179443 2.1427 0.179443H3.30348C4.48711 0.179443 5.4463 1.06524 5.4463 2.15829C5.44653 3.25114 4.48711 4.13715 3.30348 4.13715Z" fill="black"/>
<path d="M30.0009 11.3929H10.9823C9.79867 11.3929 8.83948 10.5071 8.83948 9.41403C8.83948 8.32098 9.79867 7.43518 10.9823 7.43518H30.0009C31.1845 7.43518 32.1437 8.32098 32.1437 9.41403C32.1437 10.5071 31.1845 11.3929 30.0009 11.3929Z" fill="black"/>
<path d="M3.30348 11.3929H2.1427C0.959074 11.3929 -0.00012207 10.5071 -0.00012207 9.41403C-0.00012207 8.32098 0.959074 7.43518 2.1427 7.43518H3.30348C4.48711 7.43518 5.4463 8.32098 5.4463 9.41403C5.44653 10.5071 4.48711 11.3929 3.30348 11.3929Z" fill="black"/>
<path d="M30.0009 18.649H10.9823C9.79867 18.649 8.83948 17.7632 8.83948 16.6701C8.83948 15.577 9.79867 14.6912 10.9823 14.6912L30.0009 14.691C31.1845 14.691 32.1437 15.5768 32.1437 16.6699C32.1437 17.763 31.1845 18.649 30.0009 18.649V18.649Z" fill="black"/>
<path d="M3.30348 18.6489H2.1427C0.959074 18.6489 -0.00012207 17.7631 -0.00012207 16.6701C-0.00012207 15.577 0.959074 14.6912 2.1427 14.6912H3.30348C4.48711 14.6912 5.4463 15.577 5.4463 16.6701C5.44653 17.7629 4.48711 18.6489 3.30348 18.6489Z" fill="black"/>
</svg>
