<svg width="2200" height="772" viewBox="0 0 2200 772" fill="none" xmlns="http://www.w3.org/2000/svg">
<path d="M996.891 178.903C716.964 200.834 504.167 310.502 504.167 442.491C504.167 590.271 770.93 710.07 1100 710.07C1429.07 710.07 1695.83 590.271 1695.83 442.491C1695.83 392.51 1665.32 345.73 1612.2 305.703C1653.95 340.603 1677.6 380.434 1677.6 422.723C1677.6 560.524 1426.43 672.234 1116.58 672.234C806.738 672.234 555.56 560.524 555.56 422.723C555.56 303.191 744.553 203.291 996.891 178.903Z" fill="#116530"/>
<path d="M725.644 427.153C715.277 427.153 706.115 425.022 698.159 420.76C690.324 416.497 684.236 410.518 679.896 402.822C675.557 395.008 673.387 386.128 673.387 376.182C673.387 362.329 676.642 349.601 683.151 337.998C689.661 326.395 698.581 317.219 709.912 310.47C721.244 303.721 733.841 300.347 747.703 300.347C758.07 300.347 767.172 302.478 775.007 306.74C782.963 311.003 789.051 317.041 793.27 324.856C797.61 332.552 799.779 341.432 799.779 351.496C799.779 365.348 796.525 378.076 790.015 389.68C783.626 401.164 774.766 410.281 763.435 417.03C752.103 423.779 739.506 427.153 725.644 427.153ZM727.452 415.965C738.783 415.965 748.969 413.064 758.01 407.262C767.051 401.46 774.103 393.705 779.166 383.996C784.229 374.169 786.76 363.572 786.76 352.206C786.76 339.656 783.023 329.769 775.55 322.547C768.196 315.324 758.251 311.713 745.714 311.713C734.383 311.713 724.197 314.614 715.156 320.416C706.236 326.217 699.244 334.032 694.181 343.859C689.118 353.568 686.587 364.046 686.587 375.294C686.587 387.844 690.263 397.79 697.617 405.131C705.09 412.353 715.036 415.965 727.452 415.965Z" fill="black"/>
<path d="M827.822 348.299C831.8 341.55 836.983 336.34 843.372 332.67C849.761 329 857.175 327.164 865.613 327.164L863.262 340.129H859.646C850.967 340.129 843.493 342.32 837.224 346.7C830.956 351.081 826.616 358.304 824.205 368.368L813.899 425.91H801.241L818.6 328.94H831.257L827.822 348.299Z" fill="black"/>
<path d="M915.936 327.52C925.218 327.52 932.872 329.651 938.9 333.913C945.048 338.176 949.026 343.563 950.834 350.075L954.631 328.94H967.288L949.568 428.396C948.001 437.276 944.626 445.15 939.442 452.017C934.379 458.885 927.99 464.153 920.275 467.824C912.56 471.613 904.243 473.507 895.322 473.507C882.665 473.507 872.66 470.547 865.306 464.627C858.074 458.707 854.337 450.656 854.096 440.473H866.572C867.537 447.222 870.671 452.609 875.975 456.635C881.279 460.661 888.391 462.673 897.311 462.673C907.076 462.673 915.634 459.595 922.988 453.438C930.341 447.4 934.982 439.052 936.911 428.396L941.07 404.42C936.971 411.051 931.064 416.556 923.349 420.937C915.755 425.2 907.317 427.331 898.035 427.331C886.101 427.331 876.517 423.838 869.285 416.852C862.172 409.748 858.616 400.217 858.616 388.259C858.616 384.825 858.978 381.155 859.701 377.248C861.509 367.302 865.126 358.6 870.55 351.14C875.975 343.563 882.605 337.761 890.44 333.736C898.396 329.592 906.895 327.52 915.936 327.52ZM945.952 377.425C946.554 374.11 946.856 371.15 946.856 368.545C946.856 359.31 944.023 351.969 938.357 346.523C932.692 341.076 925.338 338.353 916.297 338.353C909.306 338.353 902.736 339.892 896.588 342.971C890.561 346.049 885.438 350.548 881.219 356.468C876.999 362.27 874.167 369.196 872.72 377.248C872.117 380.8 871.816 383.819 871.816 386.305C871.816 395.659 874.588 403.059 880.134 408.505C885.799 413.833 893.153 416.497 902.194 416.497C908.944 416.497 915.393 414.899 921.541 411.702C927.81 408.505 933.053 403.947 937.272 398.027C941.612 392.107 944.505 385.24 945.952 377.425Z" fill="black"/>
<path d="M971.774 377.248C973.582 367.302 977.198 358.6 982.623 351.14C988.047 343.563 994.677 337.761 1002.51 333.736C1010.47 329.592 1018.97 327.52 1028.01 327.52C1037.41 327.52 1045.13 329.651 1051.15 333.913C1057.18 338.176 1061.1 343.622 1062.91 350.252L1066.7 328.94H1079.36L1062 425.91H1049.34L1053.14 404.42C1049.04 411.051 1043.14 416.556 1035.42 420.937C1027.83 425.2 1019.33 427.331 1009.93 427.331C1002.09 427.331 995.22 425.733 989.313 422.536C983.406 419.339 978.825 414.84 975.571 409.038C972.316 403.118 970.689 396.192 970.689 388.259C970.689 384.825 971.05 381.155 971.774 377.248ZM1058.02 377.425C1058.63 374.11 1058.93 371.15 1058.93 368.545C1058.93 359.31 1056.1 351.969 1050.43 346.523C1044.76 341.076 1037.41 338.353 1028.37 338.353C1021.38 338.353 1014.81 339.892 1008.66 342.971C1002.63 346.049 997.51 350.548 993.291 356.468C989.072 362.27 986.239 369.196 984.792 377.248C984.19 380.8 983.888 383.819 983.888 386.305C983.888 395.659 986.661 403.059 992.206 408.505C997.872 413.833 1005.23 416.497 1014.27 416.497C1021.02 416.497 1027.47 414.899 1033.61 411.702C1039.88 408.505 1045.13 403.947 1049.34 398.027C1053.68 392.107 1056.58 385.24 1058.02 377.425Z" fill="black"/>
<path d="M1145.14 327.164C1155.27 327.164 1163.35 329.888 1169.37 335.334C1175.52 340.662 1178.6 348.476 1178.6 358.777C1178.6 362.566 1178.29 366 1177.69 369.078L1167.38 425.91H1154.91L1164.85 370.499C1165.34 367.776 1165.58 364.875 1165.58 361.796C1165.58 353.982 1163.41 348.062 1159.07 344.036C1154.73 340.011 1148.64 337.998 1140.8 337.998C1131.28 337.998 1123.14 340.958 1116.39 346.878C1109.64 352.798 1105.24 361.5 1103.19 372.985V372.452L1093.61 425.91H1080.95L1098.31 328.94H1110.97L1107.89 345.635C1112.11 339.715 1117.48 335.156 1123.99 331.96C1130.5 328.763 1137.55 327.164 1145.14 327.164Z" fill="black"/>
<path d="M1212.56 310.648C1210.26 310.648 1208.4 309.996 1206.95 308.694C1205.5 307.273 1204.78 305.438 1204.78 303.188C1204.78 300.11 1205.86 297.564 1208.03 295.552C1210.2 293.42 1212.8 292.355 1215.81 292.355C1218.1 292.355 1219.91 293.006 1221.23 294.308C1222.68 295.611 1223.4 297.328 1223.4 299.459C1223.4 302.537 1222.32 305.201 1220.15 307.451C1217.98 309.582 1215.45 310.648 1212.56 310.648ZM1215.45 328.94L1198.09 425.91H1185.43L1202.79 328.94H1215.45Z" fill="black"/>
<path d="M1153.72 464.013C1158.24 464.013 1161.83 465.262 1164.51 467.759C1167.22 470.256 1168.58 473.615 1168.58 477.834C1168.58 478.824 1168.47 480.008 1168.25 481.386C1168.08 482.333 1167.77 483.496 1167.33 484.873H1139.65C1139.61 485.175 1139.59 485.627 1139.59 486.23C1139.59 488.77 1140.37 490.793 1141.95 492.3C1143.57 493.807 1145.68 494.561 1148.27 494.561C1152.34 494.561 1155.48 492.903 1157.67 489.588H1165.76C1164.09 492.86 1161.63 495.551 1158.39 497.661C1155.15 499.727 1151.4 500.761 1147.15 500.761C1144.12 500.761 1141.47 500.179 1139.19 499.017C1136.91 497.854 1135.14 496.197 1133.87 494.044C1132.59 491.848 1131.96 489.286 1131.96 486.359C1131.96 485.11 1132.09 483.775 1132.35 482.355C1133.01 478.695 1134.35 475.487 1136.36 472.732C1138.38 469.933 1140.88 467.781 1143.86 466.274C1146.88 464.767 1150.17 464.013 1153.72 464.013ZM1160.76 479.578C1160.85 478.803 1160.89 478.243 1160.89 477.899C1160.89 475.531 1160.08 473.658 1158.46 472.28C1156.88 470.902 1154.82 470.213 1152.28 470.213C1149.6 470.213 1147.19 471.053 1145.04 472.732C1142.9 474.411 1141.43 476.693 1140.64 479.578H1160.76Z" fill="black"/>
<path d="M1206.47 473.701L1205.35 479.901H1178.33L1179.44 473.701H1206.47Z" fill="black"/>
<path d="M1214.68 482.355C1215.34 478.695 1216.66 475.487 1218.63 472.732C1220.65 469.933 1223.12 467.781 1226.06 466.274C1229.04 464.767 1232.26 464.013 1235.73 464.013C1240.11 464.013 1243.55 465.047 1246.05 467.113C1248.55 469.137 1249.97 472.043 1250.32 475.832H1242.24C1241.88 474.067 1241.07 472.689 1239.8 471.699C1238.53 470.708 1236.8 470.213 1234.61 470.213C1231.54 470.213 1228.91 471.29 1226.72 473.442C1224.53 475.552 1223.08 478.523 1222.38 482.355C1222.16 483.732 1222.05 484.852 1222.05 485.713C1222.05 488.555 1222.77 490.75 1224.22 492.3C1225.67 493.807 1227.68 494.561 1230.27 494.561C1234.61 494.561 1237.81 492.688 1239.87 488.942H1247.96C1246.25 492.559 1243.75 495.443 1240.46 497.596C1237.22 499.706 1233.45 500.761 1229.15 500.761C1224.59 500.761 1220.98 499.49 1218.3 496.95C1215.63 494.367 1214.29 490.879 1214.29 486.488C1214.29 485.153 1214.42 483.775 1214.68 482.355Z" fill="black"/>
<path d="M1270.88 500.761C1267.81 500.761 1265.11 500.136 1262.79 498.888C1260.47 497.639 1258.65 495.874 1257.33 493.592C1256.06 491.31 1255.43 488.705 1255.43 485.777C1255.43 481.773 1256.37 478.114 1258.25 474.799C1260.18 471.483 1262.81 468.857 1266.14 466.92C1269.52 464.982 1273.27 464.013 1277.39 464.013C1280.46 464.013 1283.17 464.659 1285.54 465.951C1287.91 467.199 1289.75 468.965 1291.06 471.247C1292.42 473.485 1293.1 476.09 1293.1 479.061C1293.1 483.065 1292.12 486.725 1290.14 490.04C1288.17 493.355 1285.5 495.981 1282.12 497.919C1278.75 499.813 1275 500.761 1270.88 500.761ZM1271.8 494.561C1274.3 494.561 1276.58 493.872 1278.64 492.494C1280.74 491.073 1282.38 489.222 1283.57 486.94C1284.75 484.615 1285.34 482.139 1285.34 479.513C1285.34 476.542 1284.49 474.26 1282.78 472.667C1281.07 471.031 1278.92 470.213 1276.33 470.213C1273.79 470.213 1271.51 470.924 1269.5 472.345C1267.52 473.722 1265.97 475.595 1264.83 477.963C1263.73 480.288 1263.18 482.785 1263.18 485.455C1263.18 488.339 1263.97 490.578 1265.55 492.171C1267.17 493.764 1269.26 494.561 1271.8 494.561Z" fill="black"/>
<path d="M1348.97 464.013C1352.78 464.013 1355.83 465.025 1358.11 467.049C1360.39 469.072 1361.53 471.935 1361.53 475.638C1361.53 476.628 1361.42 477.812 1361.2 479.19L1357.39 500.179H1349.96L1353.57 480.288C1353.75 479.083 1353.84 478.221 1353.84 477.705C1353.84 475.337 1353.16 473.528 1351.8 472.28C1350.48 471.031 1348.64 470.407 1346.28 470.407C1343.43 470.407 1341.02 471.268 1339.04 472.99C1337.11 474.669 1335.89 477.102 1335.36 480.288L1331.74 500.179H1324.31L1327.93 480.288C1328.11 479.083 1328.19 478.221 1328.19 477.705C1328.19 475.337 1327.51 473.528 1326.16 472.28C1324.84 471.031 1323 470.407 1320.63 470.407C1317.78 470.407 1315.37 471.268 1313.4 472.99C1311.47 474.669 1310.24 477.102 1309.72 480.288V480.094L1306.1 500.179H1298.6L1304.98 464.595H1312.48L1311.76 468.728C1313.2 467.264 1314.93 466.123 1316.95 465.305C1319.01 464.444 1321.14 464.013 1323.33 464.013C1326.22 464.013 1328.7 464.616 1330.76 465.822C1332.86 467.027 1334.33 468.771 1335.16 471.053C1336.61 468.9 1338.6 467.199 1341.15 465.951C1343.69 464.659 1346.3 464.013 1348.97 464.013Z" fill="black"/>
<path d="M1418.94 464.013C1422.75 464.013 1425.8 465.025 1428.08 467.049C1430.35 469.072 1431.49 471.935 1431.49 475.638C1431.49 476.628 1431.38 477.812 1431.17 479.19L1427.35 500.179H1419.92L1423.54 480.288C1423.71 479.083 1423.8 478.221 1423.8 477.705C1423.8 475.337 1423.12 473.528 1421.76 472.28C1420.45 471.031 1418.61 470.407 1416.24 470.407C1413.39 470.407 1410.98 471.268 1409.01 472.99C1407.08 474.669 1405.85 477.102 1405.32 480.288L1401.71 500.179H1394.28L1397.9 480.288C1398.07 479.083 1398.16 478.221 1398.16 477.705C1398.16 475.337 1397.48 473.528 1396.12 472.28C1394.8 471.031 1392.96 470.407 1390.6 470.407C1387.75 470.407 1385.34 471.268 1383.36 472.99C1381.44 474.669 1380.21 477.102 1379.68 480.288V480.094L1376.07 500.179H1368.57L1374.95 464.595H1382.44L1381.72 468.728C1383.17 467.264 1384.9 466.123 1386.91 465.305C1388.97 464.444 1391.1 464.013 1393.29 464.013C1396.19 464.013 1398.66 464.616 1400.72 465.822C1402.83 467.027 1404.29 468.771 1405.13 471.053C1406.57 468.9 1408.57 467.199 1411.11 465.951C1413.65 464.659 1416.26 464.013 1418.94 464.013Z" fill="black"/>
<path d="M1460.63 464.013C1465.14 464.013 1468.74 465.262 1471.41 467.759C1474.13 470.256 1475.49 473.615 1475.49 477.834C1475.49 478.824 1475.38 480.008 1475.16 481.386C1474.98 482.333 1474.68 483.496 1474.24 484.873H1446.56C1446.51 485.175 1446.49 485.627 1446.49 486.23C1446.49 488.77 1447.28 490.793 1448.86 492.3C1450.48 493.807 1452.58 494.561 1455.17 494.561C1459.25 494.561 1462.38 492.903 1464.57 489.588H1472.66C1470.99 492.86 1468.54 495.551 1465.3 497.661C1462.05 499.727 1458.3 500.761 1454.05 500.761C1451.03 500.761 1448.37 500.179 1446.1 499.017C1443.82 497.854 1442.04 496.197 1440.77 494.044C1439.5 491.848 1438.86 489.286 1438.86 486.359C1438.86 485.11 1438.99 483.775 1439.26 482.355C1439.91 478.695 1441.25 475.487 1443.27 472.732C1445.28 469.933 1447.78 467.781 1450.76 466.274C1453.79 464.767 1457.08 464.013 1460.63 464.013ZM1467.66 479.578C1467.75 478.803 1467.79 478.243 1467.79 477.899C1467.79 475.531 1466.98 473.658 1465.36 472.28C1463.78 470.902 1461.72 470.213 1459.18 470.213C1456.51 470.213 1454.1 471.053 1451.95 472.732C1449.8 474.411 1448.33 476.693 1447.54 479.578H1467.66Z" fill="black"/>
<path d="M1493.52 470.859C1495.01 468.706 1496.76 467.027 1498.78 465.822C1500.84 464.616 1503.12 464.013 1505.61 464.013L1504.23 471.634H1502.33C1499.43 471.634 1497.11 472.345 1495.36 473.765C1493.6 475.186 1492.38 477.64 1491.67 481.128L1488.26 500.179H1480.76L1487.14 464.595H1494.63L1493.52 470.859Z" fill="black"/>
<path d="M1508.36 482.355C1509.02 478.695 1510.33 475.487 1512.31 472.732C1514.32 469.933 1516.8 467.781 1519.74 466.274C1522.72 464.767 1525.94 464.013 1529.4 464.013C1533.79 464.013 1537.23 465.047 1539.73 467.113C1542.22 469.137 1543.65 472.043 1544 475.832H1535.91C1535.56 474.067 1534.75 472.689 1533.48 471.699C1532.21 470.708 1530.48 470.213 1528.28 470.213C1525.22 470.213 1522.59 471.29 1520.39 473.442C1518.2 475.552 1516.76 478.523 1516.05 482.355C1515.84 483.732 1515.73 484.852 1515.73 485.713C1515.73 488.555 1516.45 490.75 1517.9 492.3C1519.34 493.807 1521.36 494.561 1523.94 494.561C1528.28 494.561 1531.48 492.688 1533.54 488.942H1541.63C1539.92 492.559 1537.42 495.443 1534.14 497.596C1530.89 499.706 1527.12 500.761 1522.83 500.761C1518.27 500.761 1514.65 499.49 1511.98 496.95C1509.3 494.367 1507.97 490.879 1507.97 486.488C1507.97 485.153 1508.1 483.775 1508.36 482.355Z" fill="black"/>
<path d="M1570.8 464.013C1575.32 464.013 1578.91 465.262 1581.58 467.759C1584.3 470.256 1585.66 473.615 1585.66 477.834C1585.66 478.824 1585.55 480.008 1585.33 481.386C1585.16 482.333 1584.85 483.496 1584.41 484.873H1556.73C1556.69 485.175 1556.66 485.627 1556.66 486.23C1556.66 488.77 1557.45 490.793 1559.03 492.3C1560.65 493.807 1562.76 494.561 1565.34 494.561C1569.42 494.561 1572.55 492.903 1574.75 489.588H1582.83C1581.17 492.86 1578.71 495.551 1575.47 497.661C1572.23 499.727 1568.48 500.761 1564.23 500.761C1561.2 500.761 1558.55 500.179 1556.27 499.017C1553.99 497.854 1552.21 496.197 1550.94 494.044C1549.67 491.848 1549.04 489.286 1549.04 486.359C1549.04 485.11 1549.17 483.775 1549.43 482.355C1550.09 478.695 1551.43 475.487 1553.44 472.732C1555.46 469.933 1557.96 467.781 1560.94 466.274C1563.96 464.767 1567.25 464.013 1570.8 464.013ZM1577.84 479.578C1577.92 478.803 1577.97 478.243 1577.97 477.899C1577.97 475.531 1577.16 473.658 1575.53 472.28C1573.96 470.902 1571.9 470.213 1569.35 470.213C1566.68 470.213 1564.27 471.053 1562.12 472.732C1559.97 474.411 1558.5 476.693 1557.72 479.578H1577.84Z" fill="black"/>
<path d="M1376.71 241.555C1385.11 269.594 1381.36 293.517 1381.36 293.517C1390.73 273.275 1392.1 254.872 1394.47 247.511C1406.47 210.378 1425.97 205.406 1430.67 204.145C1426.9 205.303 1417.4 211.524 1406.98 248.144C1480.81 268.763 1539.41 179.265 1533.25 119.45C1528.6 146.15 1505.55 148.901 1479.21 152.045C1440.45 156.672 1392.6 179.423 1386.98 240.15C1379.35 107.052 1306.45 94.3358 1244.86 86.8492C1203.02 81.7638 1166.42 77.3148 1159.07 35C1149.36 129.801 1246.94 272.178 1363.42 239.499C1343.89 170.552 1275.28 150.115 1275.28 150.115C1275.28 150.115 1358.24 157.843 1376.71 241.555Z" fill="#116530"/>
<path d="M1564.92 325.744C1575.77 325.744 1584.21 328.585 1590.23 334.268C1596.38 339.833 1599.45 347.648 1599.45 357.712C1599.45 360.79 1599.09 364.224 1598.37 368.012L1587.88 425.91H1557.14L1566.91 372.097C1567.15 370.913 1567.27 369.315 1567.27 367.302C1567.27 362.329 1565.82 358.54 1562.93 355.936C1560.16 353.331 1556.24 352.028 1551.18 352.028C1545.15 352.028 1540.09 353.804 1535.99 357.356C1531.89 360.79 1529.3 365.704 1528.21 372.097L1518.45 425.91H1487.71L1497.47 372.097C1497.71 370.913 1497.83 369.315 1497.83 367.302C1497.83 362.329 1496.39 358.54 1493.49 355.936C1490.72 353.331 1486.8 352.028 1481.74 352.028C1475.71 352.028 1470.65 353.804 1466.55 357.356C1462.45 360.79 1459.86 365.704 1458.78 372.097V371.209L1449.01 425.91H1418.09L1435.81 326.809H1466.73L1464.56 339.419C1468.42 335.156 1473.06 331.841 1478.49 329.473C1484.03 326.987 1490 325.744 1496.39 325.744C1504.1 325.744 1510.61 327.342 1515.92 330.539C1521.34 333.736 1525.2 338.353 1527.49 344.392C1531.95 338.827 1537.49 334.328 1544.12 330.894C1550.75 327.46 1557.68 325.744 1564.92 325.744Z" fill="#116530"/>
<path fill-rule="evenodd" clip-rule="evenodd" d="M1359.02 427.331C1350.34 427.331 1342.62 425.614 1335.87 422.181C1329.12 418.747 1323.88 413.892 1320.14 407.617C1316.52 401.342 1314.72 394.06 1314.72 385.772C1314.72 374.524 1317.43 364.283 1322.85 355.048C1328.28 345.812 1335.75 338.59 1345.27 333.38C1354.8 328.052 1365.4 325.388 1377.1 325.388C1385.78 325.388 1393.49 327.164 1400.24 330.716C1407.11 334.15 1412.42 339.004 1416.15 345.28C1419.89 351.555 1421.76 358.836 1421.76 367.124C1421.76 378.491 1418.99 388.792 1413.44 398.027C1408.02 407.144 1400.48 414.307 1390.84 419.516C1381.32 424.726 1370.71 427.331 1359.02 427.331ZM1376.92 396.784C1372.94 399.744 1368.42 401.224 1363.36 401.224C1358.41 401.224 1354.37 399.684 1351.24 396.606C1348.11 393.409 1346.54 388.91 1346.54 383.108C1346.54 377.78 1347.62 372.689 1349.79 367.835C1351.96 362.98 1354.98 359.073 1358.83 356.113C1362.81 353.035 1367.39 351.496 1372.58 351.496C1377.52 351.496 1381.62 353.094 1384.87 356.291C1388.13 359.488 1389.75 364.046 1389.75 369.966C1389.75 375.176 1388.61 380.208 1386.32 385.062C1384.15 389.798 1381.02 393.705 1376.92 396.784Z" fill="#116530"/>
<path d="M1216.26 376.36C1218.07 366.059 1221.81 357.06 1227.48 349.364C1233.14 341.668 1240.13 335.748 1248.45 331.604C1256.89 327.46 1266.05 325.388 1275.94 325.388C1288.59 325.388 1298.6 328.644 1305.95 335.156C1313.3 341.668 1317.22 350.844 1317.7 362.684H1284.8C1283.47 355.107 1278.77 351.318 1270.69 351.318C1265.03 351.318 1260.14 353.508 1256.05 357.889C1251.95 362.152 1249.17 368.308 1247.73 376.36C1247.25 378.846 1247 381.451 1247 384.174C1247 389.739 1248.33 394.001 1250.98 396.961C1253.63 399.921 1257.25 401.401 1261.83 401.401C1269.79 401.401 1275.75 397.612 1279.73 390.035H1312.82C1308.12 401.638 1300.89 410.755 1291.12 417.385C1281.36 424.016 1270.21 427.331 1257.67 427.331C1244.65 427.331 1234.29 423.838 1226.57 416.852C1218.98 409.748 1215.18 400.099 1215.18 387.904C1215.18 384.233 1215.54 380.385 1216.26 376.36Z" fill="#116530"/>
<path d="M2200 0H2191L2200 772V0Z" fill="#116530"/>
<path d="M9 0H0V772V771.5L9 0Z" fill="#116530"/>
</svg>
