<svg width="25" height="26" viewBox="0 0 25 26" fill="none" xmlns="http://www.w3.org/2000/svg">
<path d="M1.42268 25.0413C1.42268 25.3555 1.67774 25.6103 1.99175 25.6103H23.6178C23.932 25.6103 24.1869 25.3553 24.1869 25.0413V11.9515H1.42258L1.42268 25.0413ZM12.8046 23.3338H5.97513V15.3661H12.8046V23.3338ZM20.7722 21.6266H16.2192L16.2194 17.0735H20.7724L20.7722 21.6266Z" fill="#FFCC1D"/>
<path d="M21.6671 0H3.33329C3.17588 0 2.99188 0.113738 2.92161 0.254666L0.127234 5.84322C0.0569678 5.98375 0 6.22512 0 6.38251V8.53658C0 9.88377 1.0919 10.9755 2.43888 10.9755C3.78607 10.9755 4.87776 9.88357 4.87776 8.53658V6.0977L6.04192 2.43907H7.53876L6.70728 6.0977V8.53658C6.70728 9.88377 7.79918 10.9755 9.14616 10.9755C10.4934 10.9755 11.5855 9.88357 11.5855 8.53658V6.0977L11.752 2.43907H13.2482L13.4147 6.0977V8.53658C13.4147 9.88377 14.5068 10.9755 15.854 10.9755C17.2012 10.9755 18.2929 9.88357 18.2929 8.53658V6.0977L17.4614 2.43907H18.9583L20.1224 6.0977L20.1222 8.53658C20.1222 9.88377 21.2141 10.9755 22.5611 10.9755C23.9083 10.9755 25 9.88357 25 8.53658V6.38216C25 6.22475 24.943 5.98378 24.8728 5.84286L22.0784 0.25431C22.0083 0.113778 21.8245 0 21.6671 0Z" fill="#FFCC1D"/>
</svg>
