<svg width="100" height="80" viewBox="0 0 100 80" fill="none" xmlns="http://www.w3.org/2000/svg">
<path d="M49.2019 71.754C49.2019 76.2837 45.5302 79.9553 41.0014 79.9553C36.4727 79.9553 32.801 76.2837 32.801 71.754C32.801 67.2252 36.4727 63.5536 41.0014 63.5536C45.5302 63.5536 49.2019 67.2252 49.2019 71.754Z" fill="black"/>
<path d="M86.1049 71.754C86.1049 76.2837 82.4333 79.9553 77.9045 79.9553C73.3758 79.9553 69.7041 76.2837 69.7041 71.754C69.7041 67.2252 73.3758 63.5536 77.9045 63.5536C82.4333 63.5536 86.1049 67.2252 86.1049 71.754Z" fill="black"/>
<path d="M99.5967 25.7897L92.3392 47.6041C91.3842 50.4589 89.5566 52.9413 87.1137 54.7003C84.67 56.4585 81.7364 57.4048 78.7261 57.4041H41.0036C37.8055 57.4067 34.6995 56.3376 32.1793 54.3684C29.66 52.3992 27.8728 49.6422 27.1032 46.5386L18.4513 12.8754C18.1296 11.5419 17.3676 10.3552 16.289 9.5075C15.2104 8.65974 13.8778 8.19898 12.5058 8.20069H4.10019C2.63549 8.20069 1.28149 7.419 0.549578 6.15081C-0.183193 4.88176 -0.183193 3.31914 0.549578 2.05016C1.28149 0.781104 2.63551 0.000271173 4.10019 0.000271173H12.3006C15.527 -0.0194641 18.6664 1.03853 21.2217 3.00766C23.7771 4.97603 25.602 7.7416 26.4062 10.8656C26.6147 11.7134 27.3784 12.3072 28.251 12.3012H89.7564C93.0495 12.3037 96.1411 13.8877 98.0666 16.5606C99.9912 19.2326 100.515 22.6666 99.4747 25.7908L99.5967 25.7897Z" fill="black"/>
</svg>
