<svg width="30" height="29" viewBox="0 0 30 29" fill="none" xmlns="http://www.w3.org/2000/svg">
<path d="M29.7419 2.60547L27.4541 0.285927C27.2634 0.0953091 27.0409 0 26.7867 0C26.5324 0 26.2782 0.0953091 26.1193 0.285927L12.8054 13.7905C12.7101 13.8858 12.6465 13.9811 12.5828 14.1083L11.0894 17.8896C10.9624 18.2392 11.0258 18.6523 11.3119 18.9066C11.5025 19.0972 11.7251 19.1925 11.9793 19.1925C12.1063 19.1925 12.2019 19.1608 12.3289 19.1289L16.0783 17.6354C16.2053 17.5718 16.3008 17.5084 16.3961 17.4129L29.71 3.90836C30.0912 3.59074 30.0912 2.98699 29.7417 2.60551L29.7419 2.60547Z" fill="black"/>
<path d="M23.6728 13.0597C22.7195 13.0597 21.9251 13.8541 21.9251 14.8074V25.2615H3.49535V5.243H18.7793C19.7326 5.243 20.527 4.44862 20.527 3.4953C20.527 2.54198 19.7326 1.7476 18.7793 1.7476L1.7477 1.74782C0.762723 1.74782 0 2.4786 0 3.43191V27.0093C0 27.9626 0.794384 28.757 1.7477 28.757H23.6092C24.5942 28.757 25.4205 27.9626 25.4205 27.0093L25.4203 14.8075C25.4203 13.8542 24.6259 13.0598 23.6726 13.0598L23.6728 13.0597Z" fill="black"/>
</svg>
