<svg width="25" height="18" viewBox="0 0 25 18" fill="none" xmlns="http://www.w3.org/2000/svg">
<path d="M22.063 0H2.90002C1.32159 0 0 1.28501 0 2.90001V3.30384L11.8943 9.10413H11.9309C12.2612 9.28774 12.6651 9.28774 12.9954 9.10413H13.032L24.963 3.30384V2.90001C24.963 1.28494 23.6783 0 22.063 0H22.063Z" fill="#FFCC1D"/>
<path d="M12.4816 10.7561C12.0411 10.7561 11.6373 10.646 11.2335 10.4258L0 4.95605V14.3907C0 15.9691 1.28501 17.2907 2.90002 17.2907H22.0997C23.6782 17.2907 24.9997 16.0057 24.9997 14.3907L25 4.95605L13.7665 10.4627C13.3258 10.646 12.922 10.7561 12.4816 10.7561Z" fill="#FFCC1D"/>
</svg>
