<svg width="40" height="37" viewBox="0 0 40 37" fill="none" xmlns="http://www.w3.org/2000/svg">
<path d="M19.2355 6.44459L20.0002 7.35229L20.765 6.44459C21.9321 5.05935 23.2567 3.68309 24.7107 2.65765C26.1632 1.63318 27.686 1 29.2684 1C35.269 1 39 6.29181 39 10.634C39 15.4447 36.2669 20.2059 32.3557 24.6095C28.648 28.784 23.9999 32.5061 20 35.4891C16.0001 32.5063 11.3521 28.7844 7.64435 24.61C3.7332 20.2065 1 15.4453 1 10.634C1 6.29141 4.73074 1 10.7316 1H10.732C12.3144 1 13.8372 1.63318 15.2897 2.65765C16.7437 3.68309 18.0684 5.05935 19.2355 6.44459Z" fill="#FFCC1D" stroke="#FFCC1D" stroke-width="2"/>
</svg>
