<svg width="12" height="20" viewBox="0 0 12 20" fill="none" xmlns="http://www.w3.org/2000/svg">
<path d="M0.95932 3.08052C0.362702 2.50577 0.344975 1.55618 0.919726 0.959565C1.49448 0.362948 2.44406 0.345221 3.04068 0.919972L0.95932 3.08052ZM3.07957 19.0416C2.50442 19.6379 1.55483 19.655 0.958596 19.0798C0.362364 18.5047 0.345276 17.5551 0.920427 16.9588L3.07957 19.0416ZM9.27933 9.01278L8.23865 10.0931L9.27933 9.01278ZM9.30526 10.4272L8.22569 9.38583L9.30526 10.4272ZM3.04068 0.919972L10.32 7.93251L8.23865 10.0931L0.95932 3.08052L3.04068 0.919972ZM0.920427 16.9588L8.22569 9.38583L10.3848 11.4686L3.07957 19.0416L0.920427 16.9588ZM10.32 7.93251C11.3148 8.89088 11.3439 10.4744 10.3848 11.4686L8.22569 9.38583C8.03388 9.58467 8.03969 9.90138 8.23865 10.0931L10.32 7.93251Z" fill="white"/>
</svg>
