<svg width="50" height="25" viewBox="0 0 50 25" fill="none" xmlns="http://www.w3.org/2000/svg">
<path d="M50 12.4959C49.9789 11.9519 49.7559 11.323 49.3844 10.9265L37.2629 0.708568C36.4417 -0.0328812 34.8664 -0.338592 33.9486 0.518565C33.0444 1.36298 33.0714 2.99984 33.9718 3.84741L42.4945 10.2132L2.27285 10.2132C1.01781 10.2132 -5.48613e-08 11.2355 0 12.496C5.48613e-08 13.7566 1.01777 14.7788 2.27285 14.7788L42.4945 14.7788L33.9718 21.1446C33.1961 21.9248 33.0529 23.6201 33.9486 24.4735C34.8437 25.3275 36.4751 25.0546 37.2629 24.2829L49.3844 14.065C49.7992 13.6224 50.0011 13.1028 50 12.4956V12.4959Z" fill="#FFCC1D"/>
</svg>
