<svg width="48" height="50" viewBox="0 0 48 50" fill="none" xmlns="http://www.w3.org/2000/svg">
<rect x="0.5" y="0.5" width="47" height="49" rx="4.5" fill="#E8E8E8" stroke="black"/>
<path d="M23.672 44.3795C28.8894 44.3795 33.893 42.3051 37.5824 38.6125C41.2716 34.92 43.3441 29.9115 43.3441 24.6897C43.3441 19.4679 41.2716 14.4596 37.5824 10.7669C33.8931 7.07437 28.8891 5 23.672 5C18.4549 5 13.4511 7.07437 9.76165 10.7669C6.07239 14.4595 3.99988 19.4679 3.99988 24.6897C4.00581 29.9101 6.08032 34.9148 9.76822 38.6058C13.4561 42.297 18.4564 44.3734 23.6718 44.3793L23.672 44.3795ZM23.672 6.96872C28.3677 6.96872 32.8711 8.83576 36.1912 12.1591C39.5116 15.4825 41.377 19.9899 41.377 24.6896C41.377 29.3893 39.5116 33.8969 36.1912 37.22C32.8709 40.5434 28.3675 42.4104 23.672 42.4104C18.9765 42.4104 14.4729 40.5434 11.1528 37.22C7.83237 33.8966 5.96701 29.3893 5.96701 24.6896C5.97261 19.9913 7.83962 15.4873 11.1587 12.165C14.4781 8.84301 18.9781 6.97429 23.672 6.96872Z" fill="#444444"/>
<path d="M30.5578 15.8294C30.5578 19.6354 27.4749 22.7211 23.6723 22.7211C19.8698 22.7211 16.7869 19.6354 16.7869 15.8294C16.7869 12.0234 19.8698 8.93774 23.6723 8.93774C27.4749 8.93774 30.5578 12.0234 30.5578 15.8294Z" fill="#444444"/>
<path d="M23.6723 39.4575C26.0458 39.4634 28.3854 38.8941 30.4912 37.7978C32.597 36.7014 34.4061 35.1112 35.7639 33.1624C36.4081 32.253 36.6386 31.1138 36.3988 30.0249C36.1591 28.9365 35.4714 27.9997 34.5048 27.4456C31.1887 25.6152 27.459 24.6664 23.6726 24.6899C19.8856 24.6668 16.1562 25.6158 12.8404 27.4466C11.8741 28.0007 11.1865 28.9375 10.9471 30.0263C10.7073 31.1147 10.9375 32.2539 11.5814 33.1634C12.9392 35.1119 14.7482 36.7021 16.8541 37.7981C18.9599 38.8944 21.2995 39.4637 23.673 39.4575H23.6723Z" fill="#444444"/>
</svg>
