<svg width="356" height="195" viewBox="0 0 356 195" fill="none" xmlns="http://www.w3.org/2000/svg">
<g clip-path="url(#clip0_557_1730)">
<path fill-rule="evenodd" clip-rule="evenodd" d="M147.21 34.5635C63.578 41.1876 3.05176e-05 74.3256 3.05176e-05 114.208C2.05176e-05 158.861 79.6933 195.059 178 195.059C276.307 195.059 356 158.861 356 114.208C356 99.106 346.884 84.9712 331.014 72.8766C343.487 83.422 350.554 95.458 350.554 108.236C350.554 149.873 275.517 183.627 182.954 183.627C90.3908 183.627 15.3536 149.873 15.3536 108.236C15.3536 72.1168 71.82 41.9302 147.21 34.5635Z" fill="#116530"/>
<path d="M53.1635 109.444C50.0101 109.444 47.2235 108.784 44.8035 107.464C42.4201 106.144 40.5685 104.292 39.2485 101.909C37.9285 99.489 37.2685 96.739 37.2685 93.659C37.2685 89.369 38.2585 85.427 40.2385 81.8337C42.2185 78.2404 44.9318 75.3987 48.3785 73.3087C51.8251 71.2187 55.6568 70.1737 59.8735 70.1737C63.0268 70.1737 65.7951 70.8337 68.1785 72.1537C70.5985 73.4737 72.4501 75.3437 73.7335 77.7637C75.0535 80.147 75.7135 82.897 75.7135 86.0137C75.7135 90.304 74.7235 94.245 72.7435 97.839C70.8001 101.395 68.1051 104.219 64.6585 106.309C61.2118 108.399 57.3801 109.444 53.1635 109.444ZM53.7135 105.979C57.1601 105.979 60.2585 105.08 63.0085 103.284C65.7585 101.487 67.9035 99.085 69.4435 96.079C70.9835 93.035 71.7535 89.754 71.7535 86.2337C71.7535 82.347 70.6168 79.2854 68.3435 77.0487C66.1068 74.812 63.0818 73.6937 59.2685 73.6937C55.8218 73.6937 52.7235 74.592 49.9735 76.3887C47.2601 78.1854 45.1335 80.6054 43.5935 83.6487C42.0535 86.6554 41.2835 89.9 41.2835 93.384C41.2835 97.27 42.4018 100.35 44.6385 102.624C46.9118 104.86 49.9368 105.979 53.7135 105.979ZM85.6182 85.0237C86.8282 82.9337 88.4049 81.3204 90.3482 80.1837C92.292 79.047 94.547 78.4787 97.113 78.4787L96.398 82.4937H95.298C92.658 82.4937 90.3849 83.172 88.4782 84.5287C86.5715 85.8854 85.2515 88.122 84.5182 91.239L81.3832 109.059H77.5332L82.8132 79.0287H86.6632L85.6182 85.0237ZM113.795 78.5887C116.618 78.5887 118.947 79.2487 120.78 80.5687C122.65 81.8887 123.86 83.557 124.41 85.5737L125.565 79.0287H129.415L124.025 109.829C123.548 112.579 122.522 115.017 120.945 117.144C119.405 119.27 117.462 120.902 115.115 122.039C112.768 123.212 110.238 123.799 107.525 123.799C103.675 123.799 100.632 122.882 98.395 121.049C96.195 119.215 95.058 116.722 94.985 113.569H98.78C99.073 115.659 100.027 117.327 101.64 118.574C103.253 119.82 105.417 120.444 108.13 120.444C111.1 120.444 113.703 119.49 115.94 117.584C118.177 115.714 119.588 113.129 120.175 109.829L121.44 102.404C120.193 104.457 118.397 106.162 116.05 107.519C113.74 108.839 111.173 109.499 108.35 109.499C104.72 109.499 101.805 108.417 99.605 106.254C97.442 104.054 96.36 101.102 96.36 97.399C96.36 96.335 96.47 95.199 96.69 93.989C97.24 90.909 98.34 88.214 99.99 85.9037C101.64 83.557 103.657 81.7604 106.04 80.5137C108.46 79.2304 111.045 78.5887 113.795 78.5887ZM122.925 94.044C123.108 93.017 123.2 92.1 123.2 91.294C123.2 88.434 122.338 86.1604 120.615 84.4737C118.892 82.787 116.655 81.9437 113.905 81.9437C111.778 81.9437 109.78 82.4204 107.91 83.3737C106.077 84.327 104.518 85.7204 103.235 87.554C101.952 89.35 101.09 91.495 100.65 93.989C100.467 95.089 100.375 96.024 100.375 96.794C100.375 99.69 101.218 101.982 102.905 103.669C104.628 105.319 106.865 106.144 109.615 106.144C111.668 106.144 113.63 105.649 115.5 104.659C117.407 103.669 119.002 102.257 120.285 100.424C121.605 98.59 122.485 96.464 122.925 94.044ZM132.154 93.989C132.704 90.909 133.804 88.214 135.454 85.9037C137.104 83.557 139.121 81.7604 141.504 80.5137C143.924 79.2304 146.509 78.5887 149.259 78.5887C152.119 78.5887 154.466 79.2487 156.299 80.5687C158.133 81.8887 159.324 83.5754 159.874 85.6287L161.029 79.0287H164.879L159.599 109.059H155.749L156.904 102.404C155.658 104.457 153.861 106.162 151.514 107.519C149.204 108.839 146.619 109.499 143.759 109.499C141.376 109.499 139.286 109.004 137.489 108.014C135.693 107.024 134.299 105.63 133.309 103.834C132.319 102 131.824 99.855 131.824 97.399C131.824 96.335 131.934 95.199 132.154 93.989ZM158.389 94.044C158.573 93.017 158.664 92.1 158.664 91.294C158.664 88.434 157.803 86.1604 156.079 84.4737C154.356 82.787 152.119 81.9437 149.369 81.9437C147.243 81.9437 145.244 82.4204 143.374 83.3737C141.541 84.327 139.983 85.7204 138.699 87.554C137.416 89.35 136.554 91.495 136.114 93.989C135.931 95.089 135.839 96.024 135.839 96.794C135.839 99.69 136.683 101.982 138.369 103.669C140.093 105.319 142.329 106.144 145.079 106.144C147.133 106.144 149.094 105.649 150.964 104.659C152.871 103.669 154.466 102.257 155.749 100.424C157.069 98.59 157.949 96.464 158.389 94.044ZM186.263 78.4787C189.343 78.4787 191.8 79.322 193.633 81.0087C195.503 82.6587 196.438 85.0787 196.438 88.269C196.438 89.442 196.347 90.505 196.163 91.459L193.028 109.059H189.233L192.258 91.899C192.405 91.055 192.478 90.157 192.478 89.204C192.478 86.7837 191.818 84.9504 190.498 83.7037C189.178 82.457 187.327 81.8337 184.943 81.8337C182.047 81.8337 179.572 82.7504 177.518 84.5837C175.465 86.417 174.127 89.112 173.503 92.669V92.504L170.588 109.059H166.738L172.018 79.0287H175.868L174.933 84.1987C176.217 82.3654 177.848 80.9537 179.828 79.9637C181.808 78.9737 183.953 78.4787 186.263 78.4787ZM208.143 73.3637C207.446 73.3637 206.878 73.162 206.438 72.7587C205.998 72.3187 205.778 71.7504 205.778 71.0537C205.778 70.1004 206.108 69.312 206.768 68.6887C207.428 68.0287 208.216 67.6987 209.133 67.6987C209.83 67.6987 210.38 67.9004 210.783 68.3037C211.223 68.707 211.443 69.2387 211.443 69.8987C211.443 70.852 211.113 71.677 210.453 72.3737C209.793 73.0337 209.023 73.3637 208.143 73.3637ZM209.023 79.0287L203.743 109.059H199.893L205.173 79.0287H209.023Z" fill="black"/>
<path d="M211.864 93.714C212.414 90.524 213.55 87.737 215.274 85.3537C216.997 82.9704 219.124 81.137 221.654 79.8537C224.22 78.5704 227.007 77.9287 230.014 77.9287C233.864 77.9287 236.907 78.937 239.144 80.9537C241.38 82.9704 242.572 85.812 242.719 89.479H232.709C232.305 87.132 230.875 85.9587 228.419 85.9587C226.695 85.9587 225.21 86.637 223.964 87.994C222.717 89.314 221.874 91.22 221.434 93.714C221.287 94.484 221.214 95.29 221.214 96.134C221.214 97.857 221.617 99.177 222.424 100.094C223.23 101.01 224.33 101.469 225.724 101.469C228.144 101.469 229.959 100.295 231.169 97.949H241.234C239.804 101.542 237.604 104.365 234.634 106.419C231.664 108.472 228.272 109.499 224.459 109.499C220.499 109.499 217.345 108.417 214.999 106.254C212.689 104.054 211.534 101.065 211.534 97.289C211.534 96.152 211.644 94.96 211.864 93.714ZM256.659 109.499C254.019 109.499 251.673 108.967 249.619 107.904C247.566 106.84 245.971 105.337 244.834 103.394C243.734 101.45 243.184 99.195 243.184 96.629C243.184 93.145 244.009 89.974 245.659 87.114C247.309 84.2537 249.583 82.017 252.479 80.4037C255.376 78.7537 258.603 77.9287 262.159 77.9287C264.799 77.9287 267.146 78.4787 269.199 79.5787C271.289 80.642 272.903 82.1454 274.039 84.0887C275.176 86.032 275.744 88.287 275.744 90.854C275.744 94.374 274.901 97.564 273.214 100.424C271.564 103.247 269.273 105.465 266.339 107.079C263.443 108.692 260.216 109.499 256.659 109.499ZM257.979 101.414C259.519 101.414 260.894 100.955 262.104 100.039C263.351 99.085 264.304 97.875 264.964 96.409C265.661 94.905 266.009 93.347 266.009 91.734C266.009 89.9 265.514 88.489 264.524 87.499C263.534 86.5087 262.288 86.0137 260.784 86.0137C259.208 86.0137 257.814 86.4904 256.604 87.444C255.431 88.36 254.514 89.57 253.854 91.074C253.194 92.577 252.864 94.154 252.864 95.804C252.864 97.6 253.341 98.994 254.294 99.984C255.248 100.937 256.476 101.414 257.979 101.414ZM320.664 78.0387C323.964 78.0387 326.53 78.9187 328.364 80.6787C330.234 82.402 331.169 84.822 331.169 87.939C331.169 88.892 331.059 89.955 330.839 91.129L327.649 109.059H318.299L321.269 92.394C321.342 92.027 321.379 91.532 321.379 90.909C321.379 89.369 320.939 88.195 320.059 87.389C319.215 86.582 318.024 86.1787 316.484 86.1787C314.65 86.1787 313.11 86.7287 311.864 87.829C310.617 88.892 309.829 90.414 309.499 92.394L306.529 109.059H297.179L300.149 92.394C300.222 92.027 300.259 91.532 300.259 90.909C300.259 89.369 299.819 88.195 298.939 87.389C298.095 86.582 296.904 86.1787 295.364 86.1787C293.53 86.1787 291.99 86.7287 290.744 87.829C289.497 88.892 288.709 90.414 288.379 92.394V92.119L285.409 109.059H276.004L281.394 78.3687H290.799L290.139 82.2737C291.312 80.9537 292.724 79.927 294.374 79.1937C296.06 78.4237 297.875 78.0387 299.819 78.0387C302.165 78.0387 304.145 78.5337 305.759 79.5237C307.409 80.5137 308.582 81.9437 309.279 83.8137C310.635 82.0904 312.322 80.697 314.339 79.6337C316.355 78.5704 318.464 78.0387 320.664 78.0387Z" fill="#116530"/>
<path d="M181.326 119.859C182.7 119.859 183.793 120.245 184.606 121.019C185.433 121.792 185.846 122.832 185.846 124.139C185.846 124.445 185.813 124.812 185.746 125.239C185.693 125.532 185.6 125.892 185.466 126.319H177.046C177.033 126.412 177.026 126.552 177.026 126.739C177.026 127.525 177.266 128.152 177.746 128.619C178.24 129.085 178.88 129.319 179.666 129.319C180.906 129.319 181.86 128.805 182.526 127.779H184.986C184.48 128.792 183.733 129.625 182.746 130.279C181.76 130.919 180.62 131.239 179.326 131.239C178.406 131.239 177.6 131.059 176.906 130.699C176.213 130.339 175.673 129.825 175.286 129.159C174.9 128.479 174.706 127.685 174.706 126.779C174.706 126.392 174.746 125.979 174.826 125.539C175.026 124.405 175.433 123.412 176.046 122.559C176.66 121.692 177.42 121.025 178.326 120.559C179.246 120.092 180.246 119.859 181.326 119.859ZM183.466 124.679C183.493 124.439 183.506 124.265 183.506 124.159C183.506 123.425 183.26 122.845 182.766 122.419C182.286 121.992 181.66 121.779 180.886 121.779C180.073 121.779 179.34 122.039 178.686 122.559C178.033 123.079 177.586 123.785 177.346 124.679H183.466ZM198.87 122.859L198.53 124.779H190.31L190.65 122.859H198.87ZM202.869 125.539C203.069 124.405 203.469 123.412 204.069 122.559C204.683 121.692 205.436 121.025 206.329 120.559C207.236 120.092 208.216 119.859 209.269 119.859C210.603 119.859 211.649 120.179 212.409 120.819C213.169 121.445 213.603 122.345 213.709 123.519H211.249C211.143 122.972 210.896 122.545 210.509 122.239C210.123 121.932 209.596 121.779 208.929 121.779C207.996 121.779 207.196 122.112 206.529 122.779C205.863 123.432 205.423 124.352 205.209 125.539C205.143 125.965 205.109 126.312 205.109 126.579C205.109 127.459 205.329 128.139 205.769 128.619C206.209 129.085 206.823 129.319 207.609 129.319C208.929 129.319 209.903 128.739 210.529 127.579H212.989C212.469 128.699 211.709 129.592 210.709 130.259C209.723 130.912 208.576 131.239 207.269 131.239C205.883 131.239 204.783 130.845 203.969 130.059C203.156 129.259 202.749 128.179 202.749 126.819C202.749 126.405 202.789 125.979 202.869 125.539ZM221.462 131.239C220.528 131.239 219.708 131.045 219.002 130.659C218.295 130.272 217.742 129.725 217.342 129.019C216.955 128.312 216.762 127.505 216.762 126.599C216.762 125.359 217.048 124.225 217.622 123.199C218.208 122.172 219.008 121.359 220.022 120.759C221.048 120.159 222.188 119.859 223.442 119.859C224.375 119.859 225.202 120.059 225.922 120.459C226.642 120.845 227.202 121.392 227.602 122.099C228.015 122.792 228.222 123.599 228.222 124.519C228.222 125.759 227.922 126.892 227.322 127.919C226.722 128.945 225.908 129.759 224.882 130.359C223.855 130.945 222.715 131.239 221.462 131.239ZM221.742 129.319C222.502 129.319 223.195 129.105 223.822 128.679C224.462 128.239 224.962 127.665 225.322 126.959C225.682 126.239 225.862 125.472 225.862 124.659C225.862 123.739 225.602 123.032 225.082 122.539C224.562 122.032 223.908 121.779 223.122 121.779C222.348 121.779 221.655 121.999 221.042 122.439C220.442 122.865 219.968 123.445 219.622 124.179C219.288 124.899 219.122 125.672 219.122 126.499C219.122 127.392 219.362 128.085 219.842 128.579C220.335 129.072 220.968 129.319 221.742 129.319ZM246.716 119.859C247.876 119.859 248.802 120.172 249.496 120.799C250.189 121.425 250.536 122.312 250.536 123.459C250.536 123.765 250.502 124.132 250.436 124.559L249.276 131.059H247.016L248.116 124.899C248.169 124.525 248.196 124.259 248.196 124.099C248.196 123.365 247.989 122.805 247.576 122.419C247.176 122.032 246.616 121.839 245.896 121.839C245.029 121.839 244.296 122.105 243.696 122.639C243.109 123.159 242.736 123.912 242.576 124.899L241.476 131.059H239.216L240.316 124.899C240.369 124.525 240.396 124.259 240.396 124.099C240.396 123.365 240.189 122.805 239.776 122.419C239.376 122.032 238.816 121.839 238.096 121.839C237.229 121.839 236.496 122.105 235.896 122.639C235.309 123.159 234.936 123.912 234.776 124.899V124.839L233.676 131.059H231.396L233.336 120.039H235.616L235.396 121.319C235.836 120.865 236.362 120.512 236.976 120.259C237.602 119.992 238.249 119.859 238.916 119.859C239.796 119.859 240.549 120.045 241.176 120.419C241.816 120.792 242.262 121.332 242.516 122.039C242.956 121.372 243.562 120.845 244.336 120.459C245.109 120.059 245.902 119.859 246.716 119.859ZM269.497 119.859C270.657 119.859 271.583 120.172 272.277 120.799C272.97 121.425 273.317 122.312 273.317 123.459C273.317 123.765 273.283 124.132 273.217 124.559L272.057 131.059H269.797L270.897 124.899C270.95 124.525 270.977 124.259 270.977 124.099C270.977 123.365 270.77 122.805 270.357 122.419C269.957 122.032 269.397 121.839 268.677 121.839C267.81 121.839 267.077 122.105 266.477 122.639C265.89 123.159 265.517 123.912 265.357 124.899L264.257 131.059H261.997L263.097 124.899C263.15 124.525 263.177 124.259 263.177 124.099C263.177 123.365 262.97 122.805 262.557 122.419C262.157 122.032 261.597 121.839 260.877 121.839C260.01 121.839 259.277 122.105 258.677 122.639C258.09 123.159 257.717 123.912 257.557 124.899V124.839L256.457 131.059H254.177L256.117 120.039H258.397L258.177 121.319C258.617 120.865 259.143 120.512 259.757 120.259C260.383 119.992 261.03 119.859 261.697 119.859C262.577 119.859 263.33 120.045 263.957 120.419C264.597 120.792 265.043 121.332 265.297 122.039C265.737 121.372 266.343 120.845 267.117 120.459C267.89 120.059 268.683 119.859 269.497 119.859ZM283.678 119.859C285.051 119.859 286.145 120.245 286.958 121.019C287.785 121.792 288.198 122.832 288.198 124.139C288.198 124.445 288.165 124.812 288.098 125.239C288.045 125.532 287.951 125.892 287.818 126.319H279.398C279.385 126.412 279.378 126.552 279.378 126.739C279.378 127.525 279.618 128.152 280.098 128.619C280.591 129.085 281.231 129.319 282.018 129.319C283.258 129.319 284.211 128.805 284.878 127.779H287.338C286.831 128.792 286.085 129.625 285.098 130.279C284.111 130.919 282.971 131.239 281.678 131.239C280.758 131.239 279.951 131.059 279.258 130.699C278.565 130.339 278.025 129.825 277.638 129.159C277.251 128.479 277.058 127.685 277.058 126.779C277.058 126.392 277.098 125.979 277.178 125.539C277.378 124.405 277.785 123.412 278.398 122.559C279.011 121.692 279.771 121.025 280.678 120.559C281.598 120.092 282.598 119.859 283.678 119.859ZM285.818 124.679C285.845 124.439 285.858 124.265 285.858 124.159C285.858 123.425 285.611 122.845 285.118 122.419C284.638 121.992 284.011 121.779 283.238 121.779C282.425 121.779 281.691 122.039 281.038 122.559C280.385 123.079 279.938 123.785 279.698 124.679H285.818ZM295.182 121.979C295.635 121.312 296.168 120.792 296.782 120.419C297.408 120.045 298.102 119.859 298.862 119.859L298.442 122.219H297.862C296.982 122.219 296.275 122.439 295.742 122.879C295.208 123.319 294.835 124.079 294.622 125.159L293.582 131.059H291.302L293.242 120.039H295.522L295.182 121.979ZM301.198 125.539C301.398 124.405 301.798 123.412 302.398 122.559C303.011 121.692 303.764 121.025 304.658 120.559C305.564 120.092 306.544 119.859 307.598 119.859C308.931 119.859 309.978 120.179 310.738 120.819C311.498 121.445 311.931 122.345 312.038 123.519H309.578C309.471 122.972 309.224 122.545 308.838 122.239C308.451 121.932 307.924 121.779 307.258 121.779C306.324 121.779 305.524 122.112 304.858 122.779C304.191 123.432 303.751 124.352 303.538 125.539C303.471 125.965 303.438 126.312 303.438 126.579C303.438 127.459 303.658 128.139 304.098 128.619C304.538 129.085 305.151 129.319 305.938 129.319C307.258 129.319 308.231 128.739 308.858 127.579H311.318C310.798 128.699 310.038 129.592 309.038 130.259C308.051 130.912 306.904 131.239 305.598 131.239C304.211 131.239 303.111 130.845 302.298 130.059C301.484 129.259 301.078 128.179 301.078 126.819C301.078 126.405 301.118 125.979 301.198 125.539ZM321.69 119.859C323.063 119.859 324.156 120.245 324.97 121.019C325.796 121.792 326.21 122.832 326.21 124.139C326.21 124.445 326.176 124.812 326.11 125.239C326.056 125.532 325.963 125.892 325.83 126.319H317.41C317.396 126.412 317.39 126.552 317.39 126.739C317.39 127.525 317.63 128.152 318.11 128.619C318.603 129.085 319.243 129.319 320.03 129.319C321.27 129.319 322.223 128.805 322.89 127.779H325.35C324.843 128.792 324.096 129.625 323.11 130.279C322.123 130.919 320.983 131.239 319.69 131.239C318.77 131.239 317.963 131.059 317.27 130.699C316.576 130.339 316.036 129.825 315.65 129.159C315.263 128.479 315.07 127.685 315.07 126.779C315.07 126.392 315.11 125.979 315.19 125.539C315.39 124.405 315.796 123.412 316.41 122.559C317.023 121.692 317.783 121.025 318.69 120.559C319.61 120.092 320.61 119.859 321.69 119.859ZM323.83 124.679C323.856 124.439 323.87 124.265 323.87 124.159C323.87 123.425 323.623 122.845 323.13 122.419C322.65 121.992 322.023 121.779 321.25 121.779C320.436 121.779 319.703 122.039 319.05 122.559C318.396 123.079 317.95 123.785 317.71 124.679H323.83Z" fill="black"/>
<path d="M262.402 52.9668C264.5 59.5 264.5 67 264.5 67C266 63.5 267.083 57.091 267.806 54.8114C271.455 43.3118 277.072 41.8904 278.5 41.5C277.353 41.8586 274.669 42.6595 271.5 54C293.956 60.3854 306.5 38.5 306.5 21.5C302.5 24.5 301.593 24.2735 293.582 25.247C281.79 26.68 267.236 33.7254 265.527 52.5318C263.205 11.3133 238.5 7.5 224.5 5.5C216.703 5.5 204.5 5.0569 198.5 0.5C195 32.5 222.931 62.4504 258.362 52.3302C253.5 30.5 234.5 25.5 234.5 25.5C234.5 25.5 256 28.5 262.402 52.9668Z" fill="#116530"/>
</g>
<defs>
<clipPath id="clip0_557_1730">
<rect width="356" height="195" fill="white"/>
</clipPath>
</defs>
</svg>
