<svg width="25" height="25" viewBox="0 0 25 25" fill="none" xmlns="http://www.w3.org/2000/svg">
<path d="M25 19.7442C25 20.0639 24.9409 20.481 24.8225 20.9959C24.7041 21.5109 24.5797 21.9163 24.4496 22.2123C24.2011 22.8042 23.479 23.4316 22.2834 24.0944C21.1709 24.6981 20.07 25 18.9809 25C18.6613 25 18.3505 24.9792 18.0488 24.9379C17.7469 24.8964 17.4067 24.8225 17.0278 24.7159C16.649 24.6094 16.3679 24.5236 16.1844 24.4585C16.001 24.3935 15.6724 24.2721 15.199 24.0946C14.7256 23.9171 14.4355 23.8105 14.329 23.7749C13.169 23.3606 12.1331 22.8694 11.2218 22.3012C9.70669 21.3662 8.14124 20.0907 6.52536 18.4748C4.90951 16.8588 3.63403 15.2933 2.6988 13.7784C2.13064 12.8669 1.63943 11.8312 1.22506 10.6712C1.18948 10.5646 1.08293 10.2746 0.905408 9.80119C0.727882 9.32774 0.606512 8.99918 0.541467 8.81574C0.476423 8.63229 0.390624 8.35119 0.284075 7.9724C0.177526 7.5936 0.103585 7.25325 0.0620803 6.95137C0.0207509 6.64951 0 6.33874 0 6.0191C0 4.93004 0.301861 3.82915 0.905578 2.71656C1.56843 1.52099 2.19584 0.799025 2.78772 0.550365C3.08347 0.420271 3.48892 0.295937 4.00387 0.177526C4.51883 0.0591204 4.93597 0 5.25561 0C5.42127 0 5.54561 0.0177875 5.62845 0.0531874C5.84155 0.12416 6.15528 0.574079 6.56943 1.4026C6.6997 1.62756 6.87722 1.94702 7.10219 2.3614C7.32715 2.77573 7.53432 3.15153 7.72371 3.4888C7.91309 3.82624 8.09655 4.14273 8.27407 4.43867C8.30964 4.48592 8.41323 4.63398 8.58482 4.88248C8.75642 5.13098 8.88372 5.34109 8.96655 5.51288C9.04939 5.68447 9.09089 5.85328 9.09089 6.01895C9.09089 6.25576 8.92226 6.55171 8.58482 6.90676C8.24738 7.26181 7.88049 7.58738 7.48393 7.88332C7.08738 8.17925 6.72045 8.49296 6.38304 8.8243C6.0456 9.15563 5.87697 9.428 5.87697 9.64112C5.87697 9.74767 5.90662 9.88091 5.96573 10.0406C6.02485 10.2004 6.07525 10.3218 6.11658 10.4046C6.15808 10.4874 6.24092 10.6295 6.36508 10.8308C6.48942 11.032 6.55742 11.1445 6.56928 11.1682C7.46892 12.7898 8.4987 14.1807 9.65869 15.3408C10.8187 16.5007 12.2096 17.5307 13.8312 18.4302C13.8549 18.442 13.9672 18.51 14.1687 18.6344C14.3699 18.7587 14.5119 18.8415 14.5949 18.8829C14.6777 18.9244 14.7991 18.9746 14.9588 19.0337C15.1185 19.093 15.2518 19.1225 15.3583 19.1225C15.5714 19.1225 15.8436 18.9538 16.1751 18.6164C16.5067 18.279 16.8204 17.9121 17.1161 17.5155C17.4121 17.119 17.7376 16.752 18.0927 16.4146C18.4477 16.0772 18.7437 15.9086 18.9805 15.9086C19.1462 15.9086 19.315 15.9501 19.4866 16.0329C19.6582 16.1157 19.8683 16.243 20.117 16.4146C20.3655 16.5862 20.5135 16.6898 20.5608 16.7254C20.8567 16.9029 21.1734 17.0864 21.5106 17.2757C21.8481 17.4651 22.2239 17.6723 22.638 17.8972C23.0524 18.1222 23.3719 18.2997 23.5968 18.43C24.4255 18.8444 24.8753 19.1581 24.9463 19.371C24.9818 19.4538 24.9994 19.5782 24.9994 19.7438L25 19.7442Z" fill="#FFCC1D"/>
</svg>
