<svg width="30" height="25" viewBox="0 0 30 25" fill="none" xmlns="http://www.w3.org/2000/svg">
<path d="M30 2.85726C28.8976 3.34555 27.7119 3.67136 26.4611 3.82551C27.7327 3.07058 28.7109 1.86651 29.1701 0.44413C27.9802 1.14157 26.6619 1.65403 25.2596 1.92401C24.1397 0.736605 22.5423 0 20.7724 0C17.3727 0 14.6171 2.73144 14.6171 6.09949C14.6171 6.57612 14.6729 7.04025 14.7779 7.49104C9.66336 7.2344 5.12707 4.80293 2.09233 1.11324C1.55904 2.01483 1.25906 3.07058 1.25906 4.18465C1.25906 6.30198 2.34314 8.16599 3.99633 9.26423C2.98725 9.2334 2.03733 8.95259 1.20573 8.50263C1.20573 8.52096 1.20573 8.54846 1.20573 8.57429C1.20573 11.5332 3.32806 13.9972 6.14115 14.558C5.62703 14.6988 5.08374 14.7771 4.52379 14.7771C4.12632 14.7771 3.73886 14.7321 3.36389 14.6646C4.14715 17.0827 6.41947 18.8501 9.11174 18.9026C7.00525 20.5358 4.35214 21.514 1.46738 21.514C0.969086 21.514 0.481627 21.4857 0 21.4274C2.72561 23.1531 5.962 24.1647 9.43588 24.1647C20.7558 24.1647 26.9486 14.8688 26.9486 6.80443C26.9486 6.54029 26.9403 6.27698 26.9278 6.017C28.136 5.16374 29.1776 4.08716 30 2.85726Z" fill="#03A9F4"/>
</svg>
