<svg width="30" height="29" viewBox="0 0 30 29" fill="none" xmlns="http://www.w3.org/2000/svg">
<path d="M14.9999 28.2663C18.9781 28.2663 22.7933 26.8069 25.6065 24.2091C28.4196 21.6113 29.9999 18.0878 29.9999 14.4141C29.9999 10.7404 28.4196 7.21698 25.6065 4.61906C22.7935 2.02126 18.9779 0.56189 14.9999 0.56189C11.0218 0.56189 7.20641 2.02126 4.39323 4.61906C1.58017 7.21687 -0.00012207 10.7404 -0.00012207 14.4141C0.00439805 18.0868 1.58621 21.6077 4.39824 24.2044C7.21027 26.8012 11.023 28.262 14.9997 28.2662L14.9999 28.2663ZM14.9999 1.94693C18.5803 1.94693 22.0142 3.26044 24.5458 5.59851C27.0776 7.93658 28.4999 11.1076 28.4999 14.414C28.4999 17.7203 27.0776 20.8916 24.5458 23.2295C22.014 25.5675 18.5802 26.881 14.9999 26.881C11.4196 26.881 7.98556 25.5675 5.45396 23.2295C2.92215 20.8914 1.49981 17.7203 1.49981 14.414C1.50408 11.1086 2.92768 7.93996 5.45846 5.60266C7.98948 3.26554 11.4208 1.95085 14.9999 1.94693Z" fill="black"/>
<path d="M20.2502 8.18051C20.2502 10.8581 17.8995 13.0289 15 13.0289C12.1006 13.0289 9.74988 10.8581 9.74988 8.18051C9.74988 5.50292 12.1006 3.33209 15 3.33209C17.8995 3.33209 20.2502 5.50292 20.2502 8.18051Z" fill="black"/>
<path d="M15 24.8034C16.8098 24.8076 18.5937 24.4071 20.1994 23.6358C21.8051 22.8645 23.1845 21.7458 24.2198 20.3747C24.711 19.7349 24.8868 18.9335 24.704 18.1674C24.5212 17.4017 23.9968 16.7426 23.2598 16.3528C20.7313 15.0651 17.8873 14.3976 15.0002 14.4141C12.1126 14.3979 9.26895 15.0656 6.74068 16.3535C6.00389 16.7434 5.47957 17.4024 5.297 18.1684C5.11418 18.9341 5.28972 19.7356 5.78065 20.3754C6.81599 21.7462 8.19539 22.865 9.80107 23.636C11.4068 24.4073 13.1907 24.8078 15.0005 24.8034H15Z" fill="black"/>
</svg>
